<ttFont>
          <CharString index="0">
            rmoveto
            -100 callgsubr
            -615 vmoveto
            -62 callgsubr
            -89 callgsubr
            -61 callgsubr
            hvcurveto
            return
          </CharString>
          <CharString index="1">
            512 hmoveto
            343 vlineto
            146 -100 51 -113 -77 -70 -19 -58 -73 vhcurveto
            -88 callsubr
            -20 -145 vlineto
            -126 -89 -47 -111 hvcurveto
            return
          </CharString>
          <CharString index="2">
            rmoveto
            -122 6 callgsubr
            97 hlineto
            77 56 77 -56 rlineto
            97 hlineto
            -122 134 rlineto
            return
          </CharString>
          <CharString index="3">
            159 -122 87 -140 -133 -134 -96 -179 -171 126 -102 143 75 80 18 71 69 vhcurveto
            -84 callgsubr
            88 vmoveto
            -60 callgsubr
            return
          </CharString>
          <CharString index="4">
            rmoveto
            -109 -69 79 129 hvcurveto
            387 -118 -392 vlineto
            -209 131 -105 165 165 131 105 209 vhcurveto
            392 -118 -387 vlineto
            -129 -69 -79 -109 vhcurveto
            return
          </CharString>
          <CharString index="5">
            -21 235 107 250 107 -105 callgsubr
            return
          </CharString>
          <CharString index="6">
            326 92 -106 callgsubr
            return
          </CharString>
          <CharString index="7">
            662 -107 callgsubr
            return
          </CharString>
          <CharString index="8">
            34 28 28 34 34 -27 27 -35 return
          </CharString>
          <CharString index="9">
            -96 callgsubr
            endchar
          </CharString>
          <CharString index="10">
            -34 -54 47 -50 hhcurveto
            -57 -32 -54 -76 hvcurveto
            74 hlineto
            36 1 15 8 18 hhcurveto
            return
          </CharString>
          <CharString index="11">
            -39 callsubr
            -101 callsubr
            return
          </CharString>
          <CharString index="12">
            59 85 rlineto
            11 16 7 16 20 vvcurveto
            40 -30 23 -33 -37 -27 -26 -37 -21 9 -19 18 -11 vhcurveto
            -38 -86 rlineto
            return
          </CharString>
          <CharString index="13">
            815 -107 callgsubr
            return
          </CharString>
          <CharString index="14">
            -77 callgsubr
            205 -20 -103 callgsubr
            return
          </CharString>
          <CharString index="15">
            rmoveto
            -97 -71 71 103 103 71 71 97 97 71 -71 -103 -103 -71 -71 -97 hvcurveto
            return
          </CharString>
          <CharString index="16">
            rmoveto
            -106 145 -118 -49 122 -96 rlineto
            return
          </CharString>
          <CharString index="17">
            106 74 45 70 77 45 -45 -102 vhcurveto
            -292 112 326 vlineto
            144 -86 70 -115 -73 return
          </CharString>
          <CharString index="18">
            -69 callsubr
            -152 118 -122 162 return
          </CharString>
          <CharString index="19">
            50 -70 rlineto
            35 52 44 19 58 hhcurveto
            65 53 -26 -80 hvcurveto
            return
          </CharString>
          <CharString index="20">
            193 288 rmoveto
            -90 callsubr
            return
          </CharString>
          <CharString index="21">
            44 vstem
            778 351 rmoveto
            199 -162 162 -199 -203 -160 -165 -198 -198 158 -163 203 203 160 165 198 vhcurveto
            -44 -1 rmoveto
            -174 -139 -145 -179 -178 -137 143 174 174 138 145 179 178 138 -143 -174 vhcurveto
            return
          </CharString>
          <CharString index="22">
            111 -385 187 335 105 -335 185 373 hlineto
            return
          </CharString>
          <CharString index="23">
            -21 callsubr
            hstem
            9 558 vstem
            567 532 -91 callgsubr
            return
          </CharString>
          <CharString index="24">
            rlineto
            -23 callsubr
            68 159 rlineto
            335 hlineto
            71 -159 rlineto
            130 hlineto
            return
          </CharString>
          <CharString index="25">
            453 244 -93 callgsubr
            return
          </CharString>
          <CharString index="26">
            1 -33 callsubr
            266 112 hintmask 11011000
            -81 callgsubr
            hintmask 10111000
            -32 callsubr
            return
          </CharString>
          <CharString index="27">
            621 177 rmoveto
            -406 522 rlineto
            -118 -59 callgsubr
            510 hlineto
            396 -510 rlineto
            128 699 -118 hlineto
            return
          </CharString>
          <CharString index="28">
            -69 -62 -42 -78 -59 -48 26 54 59 56 return
          </CharString>
          <CharString index="29">
            -39 callgsubr
            384 104 -103 callsubr
            return
          </CharString>
          <CharString index="30">
            -104 84 -67 108 80 61 36 43 36 vhcurveto
            return
          </CharString>
          <CharString index="31">
            -106 callgsubr
            endchar
          </CharString>
          <CharString index="32">
            rmoveto
            -75 hlineto
            -33 -11 -11 -19 vhcurveto
            return
          </CharString>
          <CharString index="33">
            21 -21 699 -20 return
          </CharString>
          <CharString index="34">
            191 -41 callgsubr
            97 118 406 -14 callsubr
            -80 callsubr
            return
          </CharString>
          <CharString index="35">
            -21 -41 callgsubr
            252 120 vstem
            372 hmoveto
            276 vlineto
            260 423 -15 callsubr
            -191 -318 -191 318 -15 callsubr
            260 -423 rlineto
            -276 vlineto
            return
          </CharString>
          <CharString index="36">
            -65 callsubr
            hintmask 01011100
            -26 -57 rlineto
            hintmask 10101110
            -70 callgsubr
            return
          </CharString>
          <CharString index="37">
            195 -7 108 507 108 return
          </CharString>
          <CharString index="38">
            -162 -118 -122 -152 return
          </CharString>
          <CharString index="39">
            416 107 rmoveto
            -129 -112 108 137 152 112 96 138 79 53 -22 -64 67 hvcurveto
            75 82 rlineto
            64 -58 -87 56 -134 -24 callsubr
            return
          </CharString>
          <CharString index="40">
            -106 hlineto
            -57 -7 -17 -19 -30 hhcurveto
            -15 -21 8 11 -18 hvcurveto
            hintmask 01011100
            45 -73 -29 16 -53 hhcurveto
            -83 -62 -65 -123 hvcurveto
            106 hlineto
            57 7 17 19 30 hhcurveto
            16 19 -8 -11 19 hvcurveto
            return
          </CharString>
          <CharString index="41">
            90 rmoveto
            -66 72 rlineto
            -39 -38 -46 -29 -59 hhcurveto
            -97 -77 78 95 105 84 64 88 61 42 -28 -32 37 hvcurveto
            66 81 rlineto
            57 -57 -80 26 -72 hhcurveto
            -146 -135 -106 -169 return
          </CharString>
          <CharString index="42">
            -48 callgsubr
            -40 callsubr
            hvcurveto
            return
          </CharString>
          <CharString index="43">
            rmoveto
            -115 -176 rlineto
            108 hlineto
            119 176 -119 176 rlineto
            -108 hlineto
            return
          </CharString>
          <CharString index="44">
            9 0 -60 callsubr
            return
          </CharString>
          <CharString index="45">
            162 118 122 152 return
          </CharString>
          <CharString index="46">
            hstem
            47 577 vstem
            454 591 rmoveto
            -3 vlineto
            -407 -497 rlineto
            -91 577 109 -412 3 vlineto
            406 495 rlineto
            92 -558 -108 vlineto
            return
          </CharString>
          <CharString index="47">
            111 187 105 185 111 return
          </CharString>
          <CharString index="48">
            -32 -22 -23 -33 -32 -23 23 32 33 23 23 32 33 22 -23 -33 vhcurveto
            endchar
          </CharString>
          <CharString index="49">
            351 321 rmoveto
            202 211 rlineto
            -144 hlineto
            -216 -226 rlineto
            return
          </CharString>
          <CharString index="50">
            -21 532 -20 return
          </CharString>
          <CharString index="51">
            128 123 108 166 hvcurveto
            -277 -174 rmoveto
            -84 -73 70 101 106 73 73 84 91 74 -75 -102 -106 -80 -67 -85 hvcurveto
            endchar
          </CharString>
          <CharString index="52">
            130 -127 130 hstemhm
            return
          </CharString>
          <CharString index="53">
            -114 -140 return
          </CharString>
          <CharString index="54">
            334 rmoveto
            471 -217 rlineto
            114 vlineto
            -352 163 rlineto
            11 vlineto
            352 159 rlineto
            114 vlineto
            -471 -218 rlineto
            return
          </CharString>
          <CharString index="55">
            96 500 -45 callgsubr
            return
          </CharString>
          <CharString index="56">
            hstem
            52 -42 callsubr
            vstem
            return
          </CharString>
          <CharString index="57">
            rmoveto
            -239 hlineto
            119 269 rlineto
            return
          </CharString>
          <CharString index="58">
            96 -81 -45 callgsubr
            return
          </CharString>
          <CharString index="59">
            123 62 123 return
          </CharString>
          <CharString index="60">
            219 576 rmoveto
            50 29 33 44 30 24 -16 -19 18 vhcurveto
            return
          </CharString>
          <CharString index="61">
            -532 112 return
          </CharString>
          <CharString index="62">
            -97 112 -14 callgsubr
            return
          </CharString>
          <CharString index="63">
            85 21 -21 159 109 431 -20 return
          </CharString>
          <CharString index="64">
            1 -8 101 -72 -57 callsubr
            return
          </CharString>
          <CharString index="65">
            121 494 121 return
          </CharString>
          <CharString index="66">
            -20 hstem
            -19 callsubr
            return
          </CharString>
          <CharString index="67">
            -20 -14 -19 -27 -12 -14 3 7 -13 return
          </CharString>
          <CharString index="68">
            hstem
            -24 callgsubr
            -22 callgsubr
            return
          </CharString>
          <CharString index="69">
            21 -57 callsubr
            return
          </CharString>
          <CharString index="70">
            319 rmoveto
            -92 callgsubr
          </CharString>
          <CharString index="71">
            -373 -765 rlineto
            72 hlineto
            373 765 rlineto
            return
          </CharString>
          <CharString index="72">
            7 -8 100 348 100 return
          </CharString>
          <CharString index="73">
            -29 callgsubr
            491 return
          </CharString>
          <CharString index="74">
            -25 callsubr
            -8 -37 callgsubr
            return
          </CharString>
          <CharString index="75">
            97 -112 -46 callsubr
            vlineto
            return
          </CharString>
          <CharString index="76">
            hstemhm
            -19 callsubr
            return
          </CharString>
          <CharString index="77">
            rmoveto
            -61 83 -348 65 409 vlineto
            endchar
          </CharString>
          <CharString index="78">
            625 266 rmoveto
            177 -127 97 -126 -66 -66 -29 -72 -47 vhcurveto
            return
          </CharString>
          <CharString index="79">
            107 -112 -46 callsubr
            228 vlineto
            return
          </CharString>
          <CharString index="80">
            21 -21 532 -41 callsubr
            vstem
            return
          </CharString>
          <CharString index="81">
            -333 -74 callsubr
            return
          </CharString>
          <CharString index="82">
            21 -21 439 101 return
          </CharString>
          <CharString index="83">
            hhcurveto
            -205 -163 -155 -207 return
          </CharString>
          <CharString index="84">
            126 hlineto
            return
          </CharString>
          <CharString index="85">
            57 -52 48 -57 -57 -51 -48 -57 return
          </CharString>
          <CharString index="86">
            -71 -212 111 633 -20 return
          </CharString>
          <CharString index="87">
            112 266 112 return
          </CharString>
          <CharString index="88">
            81 112 return
          </CharString>
          <CharString index="89">
            185 hmoveto
            return
          </CharString>
          <CharString index="90">
            -132 -402 -132 402 -6 callsubr
            return
          </CharString>
          <CharString index="91">
            118 hlineto
            192 83 -91 -149 hvcurveto
            endchar
          </CharString>
          <CharString index="92">
            rlineto
            -129 hlineto
            return
          </CharString>
          <CharString index="93">
            118 vstem
            return
          </CharString>
          <CharString index="94">
            -21 427 113 -8 -37 callgsubr
            return
          </CharString>
          <CharString index="95">
            100 112 rlineto
            55 -242 -62 vlineto
            endchar
          </CharString>
          <CharString index="96">
            699 rmoveto
            return
          </CharString>
          <CharString index="97">
            21 -21 442 90 127 97 -53 -20 return
          </CharString>
          <CharString index="98">
            173 705 rmoveto
            -61 hlineto
            -59 -85 rlineto
            return
          </CharString>
          <CharString index="99">
            rmoveto
            -59 callgsubr
            7 callsubr
            endchar
          </CharString>
          <CharString index="100">
            rmoveto
            78 246 -78 hlineto
            return
          </CharString>
          <CharString index="101">
            rlineto
            -116 hlineto
            return
          </CharString>
          <CharString index="102">
            hlineto
            -308 return
          </CharString>
          <CharString index="103">
            -149 -245 rlineto
            -61 175 vlineto
            return
          </CharString>
          <CharString index="104">
            93 115 94 95 95 115 92 return
          </CharString>
          <CharString index="105">
            -290 -140 84 729 84 hstem
            return
          </CharString>
          <CharString index="106">
            0 166 -153 -21 111 63 return
          </CharString>
          <CharString index="107">
            149 vstem
            return
          </CharString>
          <CharString index="108">
            94 hstem
            239 90 vstem
            239 return
          </CharString>
          <CharString index="109">
            219 -137 130 -253 return
          </CharString>
          <CharString index="110">
            -56 -60 -51 -30 -86 hhcurveto
            endchar
          </CharString>
          <CharString index="111">
            64 352 hstem
            return
          </CharString>
          <CharString index="112">
            742 -112 return
          </CharString>
          <CharString index="113">
            149 hstem
            return
          </CharString>
          <CharString index="114">
            699 vlineto
            return
          </CharString>
        <CharString name=".notdef">
          endchar
        </CharString>
        <CharString name="A">
          -76 callgsubr
          endchar
        </CharString>
        <CharString name="AE">
          395 0 110 49 113 22 103 192 110 hstemhm
          472 129 hintmask 10111000
          974 -11 callsubr
          -619 hlineto
          -366 -4 callgsubr
          145 hlineto
          hintmask 11111000
          85 159 rlineto
          253 -159 514 110 -385 hlineto
          hintmask 10111000
          184 335 103 -335 192 373 vlineto
          hintmask 11111000
          -502 -317 rmoveto
          -196 hlineto
          167 317 rlineto
          29 hlineto
          endchar
        </CharString>
        <CharString name="Aacute">
          -76 callgsubr
          54 202 -99 callgsubr
        </CharString>
        <CharString name="Acircumflex">
          -44 callsubr
          78 8 callgsubr
          0 730 vstem
          -95 callgsubr
          -53 354 -104 callgsubr
        </CharString>
        <CharString name="Adieresis">
          -44 callsubr
          74 123 hstem
          211 -48 callsubr
          vstem
          -95 callgsubr
          -151 278 -107 callgsubr
          endchar
        </CharString>
        <CharString name="Agrave">
          -44 callsubr
          hstem
          0 730 vstem
          -95 callgsubr
          58 220 -18 callgsubr
        </CharString>
        <CharString name="Aring">
          85 21 -21 159 109 448 -20 131 49 hstem
          257 53 110 54 vstem
          474 771 rmoveto
          -22 callsubr
          -34 18 -31 27 -19 vhcurveto
          -302 -687 -83 callsubr
          -303 686 rlineto
          28 19 19 31 35 vvcurveto
          8 -503 -50 callsubr
          58 234 rmoveto
          -59 callsubr
        </CharString>
        <CharString name="Atilde">
          -44 callsubr
          75 -55 callsubr
          198 -19 callgsubr
          hintmask 11110110
          -95 callgsubr
          168 347 -75 callsubr
          hintmask 11101110
          -97 callsubr
          hintmask 11110110
          -85 callgsubr
        </CharString>
        <CharString name="B">
          61 0 109 191 109 181 109 hstemhm
          -44 callgsubr
          278 123 -82 121 hintmask 11110100
          403 hmoveto
          201 51 108 86 89 -56 62 -86 18 hvcurveto
          hintmask 11111000
          34 16 69 28 107 vvcurveto
          79 -46 106 -201 vhcurveto
          -272 -699 hlineto
          118 409 rmoveto
          181 151 vlineto
          84 43 -25 -69 -65 -54 -22 -74 hvcurveto
          -150 -300 rmoveto
          191 170 vlineto
          hintmask 11110100
          82 67 -24 -69 -81 -56 -17 -78 hvcurveto
          endchar
        </CharString>
        <CharString name="C">
          91 -8 115 493 116 hstem
          52 123 vstem
          -68 callsubr
          -212 159 -150 205 131 84 59 64 58 hvcurveto
          -76 78 rlineto
          3 callsubr
        </CharString>
        <CharString name="CR">
          endchar
        </CharString>
        <CharString name="Ccedilla">
          91 -25 callgsubr
          170 -91 -21 605 116 hstemhm
          52 123 227 87 hintmask 01011100
          hintmask 01101100
          -68 callsubr
          hvcurveto
          hintmask 01011100
          -195 133 -142 180 -22 vhcurveto
          hintmask 10101110
          -33 -63 -71 callsubr
          16 31 120 5 79 56 55 61 rlinecurve
          -76 78 rlineto
          hintmask 01101100
          3 callsubr
        </CharString>
        <CharString name="D">
          137 0 111 479 109 -49 callgsubr
          393 119 vstem
          727 350 rmoveto
          2 callsubr
          vhcurveto
          -240 -699 -13 callgsubr
          hvcurveto
          -119 hmoveto
          -1 callgsubr
          479 -16 callsubr
        </CharString>
        <CharString name="Delta">
          145 0 110 589 -20 hstem
          30 730 vstem
          452 -11 callsubr
          -114 -6 callgsubr
          730 hlineto
          -554 111 rmoveto
          189 424 189 -426 rlineto
          endchar
        </CharString>
        <CharString name="E">
          -51 callgsubr
          588 -11 callsubr
          -87 callgsubr
          endchar
        </CharString>
        <CharString name="Eacute">
          -51 callgsubr
          588 -11 callsubr
          -87 callgsubr
          -192 169 -99 callgsubr
        </CharString>
        <CharString name="Ecircumflex">
          -63 callsubr
          58 134 -31 callgsubr
          291 891 -105 callsubr
          193 -192 rmoveto
          -87 callgsubr
          endchar
        </CharString>
        <CharString name="Edieresis">
          -63 callsubr
          54 123 hstemhm
          -44 callgsubr
          -25 -48 callsubr
          hintmask 11101000
          hintmask 11110110
          190 -94 callsubr
          213 -116 rmoveto
          hintmask 11101000
          -87 callgsubr
          endchar
        </CharString>
        <CharString name="Egrave">
          -51 callgsubr
          421 -58 callgsubr
          269 -58 rmoveto
          -87 callgsubr
          endchar
        </CharString>
        <CharString name="Eth">
          145 0 111 183 105 191 109 hstem
          105 118 393 119 vstem
          26 294 rmoveto
          79 -294 -13 callgsubr
          2 callsubr
          hvcurveto
          -240 -300 -79 hlineto
          590 -49 rmoveto
          -1 callgsubr
          183 250 105 -250 191 -16 callsubr
        </CharString>
        <CharString name="Euro">
          116 4 116 104 86 83 86 117 120 hstem
          139 129 vstem
          52 393 rmoveto
          88 hlineto
          -1 -11 0 -11 -11 vvcurveto
          -17 1 -17 2 -16 vhcurveto
          -90 -86 109 hlineto
          -134 47 114 -86 139 hhcurveto
          116 78 52 63 51 hvcurveto
          -71 86 rlineto
          -55 -53 -45 -30 -76 hhcurveto
          -72 -58 40 64 -33 hvcurveto
          230 86 -257 hlineto
          -2 15 -1 16 17 vvcurveto
          12 0 11 1 12 vhcurveto
          259 86 -238 hlineto
          75 31 64 42 84 hhcurveto
          70 47 -22 -63 59 hvcurveto
          71 90 rlineto
          63 -51 -82 52 -119 hhcurveto
          -144 -120 -96 -141 -44 hvcurveto
          -104 hlineto
          endchar
        </CharString>
        <CharString name="F">
          -41 21 -21 288 109 192 110 -31 callgsubr
          563 -11 callsubr
          -466 -59 callgsubr
          288 310 109 -310 192 347 hlineto
          endchar
        </CharString>
        <CharString name="G">
          112 -8 113 495 116 hstem
          52 123 406 -14 callsubr
          581 340 rmoveto
          -192 vlineto
          -30 -47 -56 -13 -61 hhcurveto
          -132 -110 93 154 152 112 96 138 70 52 -13 -49 57 hvcurveto
          63 90 rlineto
          50 -57 -79 38 -111 -24 callsubr
          -212 159 -150 205 131 94 45 64 58 hvcurveto
          239 vlineto
          endchar
        </CharString>
        <CharString name="H">
          132 21 -21 286 110 303 -20 -49 callgsubr
          347 -14 callsubr
          97 hmoveto
          118 286 347 -286 118 699 -118 -303 -347 303 -118 hlineto
          endchar
        </CharString>
        <CharString name="I">
          -333 -57 callgsubr
          7 callsubr
          endchar
        </CharString>
        <CharString name="Iacute">
          -333 -57 callgsubr
          7 callsubr
          -10 58 -99 callgsubr
        </CharString>
        <CharString name="Icircumflex">
          -26 callsubr
          78 134 -40 callgsubr
          7 callsubr
          -100 192 -104 callgsubr
        </CharString>
        <CharString name="Idieresis">
          -26 callsubr
          74 123 hstemhm
          3 123 -29 118 -27 123 hintmask 11101000
          hintmask 11110100
          3 -94 callsubr
          hintmask 11101000
          -91 -116 -8 callsubr
        </CharString>
        <CharString name="Igrave">
          -26 callsubr
          -31 callgsubr
          209 -58 callgsubr
          -10 -58 -8 callsubr
        </CharString>
        <CharString name="Itilde">
          -26 callsubr
          75 -55 callsubr
          -12 74 35 118 30 75 hintmask 11100100
          -42 callgsubr
          7 callsubr
          hintmask 11100110
          105 185 -75 callsubr
          hintmask 11011100
          -97 callsubr
          hintmask 11100110
          -85 callgsubr
        </CharString>
        <CharString name="J">
          -94 -6 114 485 106 -73 callgsubr
          endchar
        </CharString>
        <CharString name="Jcircumflex">
          -94 -6 114 485 106 58 134 -73 callgsubr
          120 192 -104 callgsubr
        </CharString>
        <CharString name="K">
          59 -57 callgsubr
          196 vlineto
          102 110 232 -306 rlineto
          140 hlineto
          -285 393 281 306 rlineto
          -150 hlineto
          -320 -341 rlineto
          341 vlineto
          endchar
        </CharString>
        <CharString name="L">
          -79 0 112 587 -20 -31 callgsubr
          97 hmoveto
          437 112 -319 587 -118 hlineto
          endchar
        </CharString>
        <CharString name="Lslash">
          -67 0 112 587 -20 hstem
          109 -14 callsubr
          30 196 rmoveto
          79 24 rlineto
          -220 437 112 -319 145 vlineto
          219 68 rlineto
          105 vlineto
          -219 -68 rlineto
          337 -118 -374 vlineto
          -79 -24 rlineto
          endchar
        </CharString>
        <CharString name="M">
          338 21 -21 546 153 0 -20 hstemhm
          -44 callgsubr
          553 118 hintmask 10111000
          458 61 rmoveto
          66 hlineto
          hintmask 11011000
          244 485 rlineto
          -546 118 699 -183 vlineto
          -211 -439 -211 439 rlineto
          -184 -59 callgsubr
          546 hlineto
          endchar
        </CharString>
        <CharString name="N">
          -73 callsubr
          endchar
        </CharString>
        <CharString name="NULL">
          -645 endchar
        </CharString>
        <CharString name="Nacute">
          -73 callsubr
          -150 88 -99 callgsubr
        </CharString>
        <CharString name="Ntilde">
          191 -74 callsubr
          75 -55 callsubr
          -44 callgsubr
          34 -19 callgsubr
          40 118 hintmask 11101011
          -80 callsubr
          -40 185 -68 callgsubr
        </CharString>
        <CharString name="O">
          195 -7 108 507 108 -86 callgsubr
          endchar
        </CharString>
        <CharString name="OE">
          421 0 103 -103 -60 callsubr
          -103 103 hstemhm
          53 128 328 118 hintmask 01110110
          1000 -11 callsubr
          -591 hlineto
          -201 -155 -149 -200 -200 155 -150 201 hvcurveto
          603 -85 callsubr
          hintmask 10101110
          -819 -238 rmoveto
          135 104 111 135 vhcurveto
          89 -493 -89 hlineto
          -135 -104 112 135 hvcurveto
          endchar
        </CharString>
        <CharString name="Oacute">
          195 -7 108 507 108 -86 callgsubr
          18 764 -99 callgsubr
        </CharString>
        <CharString name="Ocircumflex">
          -70 callsubr
          41 134 -86 callgsubr
          -54 898 -104 callgsubr
        </CharString>
        <CharString name="Odieresis">
          -70 callsubr
          37 123 hstem
          52 121 88 -48 callsubr
          98 121 vstem
          261 -94 callsubr
          -26 -207 -107 callsubr
          endchar
        </CharString>
        <CharString name="Ograve">
          -28 callgsubr
          496 -58 callgsubr
          26 -149 -107 callsubr
          endchar
        </CharString>
        <CharString name="Omega">
          261 0 111 497 108 hstem
          85 -42 callsubr
          vstem
          453 716 rmoveto
          -74 callgsubr
          -85 34 -86 83 -73 hvcurveto
          -148 -111 334 110 hlineto
          -107 29 -75 98 117 vvcurveto
          -66 callgsubr
          140 107 -54 callsubr
          -117 -75 -98 -107 -29 vhcurveto
          -110 334 111 -148 vlineto
          83 73 34 86 85 vvcurveto
          -69 callgsubr
          vhcurveto
          endchar
        </CharString>
        <CharString name="Oslash">
          -28 callgsubr
          595 811 rmoveto
          -54 -114 rlineto
          12 -38 -41 7 -42 hhcurveto
          -74 callgsubr
          -139 72 -116 111 -61 hvcurveto
          -73 -156 rlineto
          100 hlineto
          57 122 rlineto
          -8 32 34 -4 35 hhcurveto
          -62 callgsubr
          130 -65 110 -99 63 hvcurveto
          71 153 rlineto
          -275 -203 rmoveto
          26 25 -4 -8 24 hvcurveto
          -212 -454 rlineto
          -67 46 -43 78 88 vvcurveto
          -66 callgsubr
          vhcurveto
          247 -254 rmoveto
          -139 -107 -54 callsubr
          -19 -18 2 3 -17 vhcurveto
          209 447 rlineto
          56 -47 36 -72 -80 vvcurveto
          endchar
        </CharString>
        <CharString name="Otilde">
          -70 callsubr
          38 -55 callsubr
          52 121 79 -19 callgsubr
          83 121 hintmask 11101011
          -98 callgsubr
          164 891 -68 callgsubr
        </CharString>
        <CharString name="P">
          39 21 -21 205 107 280 107 -49 callgsubr
          306 121 vstem
          642 457 rmoveto
          156 -88 86 -217 vhcurveto
          -240 -59 callgsubr
          205 124 hlineto
          200 103 1 callgsubr
          -28 -63 -141 vhcurveto
          -137 280 120 hlineto
          123 63 -31 -104 hvcurveto
          endchar
        </CharString>
        <CharString name="Q">
          195 -141 113 21 108 507 108 hstemhm
          52 -42 callsubr
          hintmask 01111000
          420 -7 rmoveto
          5 5 1 5 hhcurveto
          hintmask 11111000
          -88 34 92 -47 80 hhcurveto
          68 73 31 61 58 hvcurveto
          -67 93 rlineto
          -43 -26 -54 -29 -50 hhcurveto
          -33 -32 17 28 -21 hvcurveto
          137 52 94 127 159 vvcurveto
          -89 callgsubr
          vhcurveto
          hintmask 01111000
          -61 callgsubr
          vhcurveto
          615 vmoveto
          -100 callgsubr
          endchar
        </CharString>
        <CharString name="R">
          83 21 -102 callsubr
          endchar
        </CharString>
        <CharString name="Racute">
          83 21 -102 callsubr
          -162 315 -99 callgsubr
        </CharString>
        <CharString name="Rcaron">
          83 21 -21 235 107 250 107 61 134 -105 callgsubr
          -138 288 -94 callgsubr
        </CharString>
        <CharString name="Rcommaaccent">
          83 -250 195 76 -102 callsubr
          -273 -722 -9 callgsubr
          endchar
        </CharString>
        <CharString name="S">
          -15 -8 110 505 109 hstem
          68 123 267 123 vstem
          191 522 rmoveto
          61 54 24 64 67 79 -26 -38 42 vhcurveto
          63 89 rlineto
          55 -66 -94 29 -87 hhcurveto
          -129 -116 -64 -141 -130 84 -46 149 -35 hvcurveto
          129 -31 28 -26 -51 vvcurveto
          -54 -48 -36 -76 -86 -67 34 58 -67 vhcurveto
          -74 -89 rlineto
          -75 84 101 -38 106 hhcurveto
          147 103 79 133 117 -77 54 -148 36 hvcurveto
          -133 32 -32 24 55 vvcurveto
          endchar
        </CharString>
        <CharString name="Scaron">
          -11 -8 111 507 110 40 8 callgsubr
          68 124 269 123 vstem
          192 525 rmoveto
          61 54 24 65 67 80 -26 -38 42 vhcurveto
          63 90 rlineto
          55 -66 -95 29 -87 hhcurveto
          -130 -117 -64 -142 -131 85 -46 150 -35 hvcurveto
          129 -32 29 -26 -51 vvcurveto
          -54 -49 -36 -76 -87 -67 34 58 -67 vhcurveto
          -75 -89 rlineto
          -76 85 101 -38 107 hhcurveto
          148 103 79 134 118 -77 54 -149 36 hvcurveto
          -134 32 -32 25 55 vvcurveto
          176 235 -94 callgsubr
        </CharString>
        <CharString name="T">
          -41 21 -21 591 108 hstem
          243 -14 callsubr
          361 591 rmoveto
          212 108 -542 -108 212 -591 118 hlineto
          endchar
        </CharString>
        <CharString name="Thorn">
          41 21 -21 117 107 280 107 -107 195 hstemhm
          -44 callgsubr
          306 121 hintmask 11011100
          642 369 rmoveto
          hintmask 11101100
          156 -98 86 -217 vhcurveto
          -112 hlineto
          hintmask 11011100
          88 -118 -59 callgsubr
          117 114 vlineto
          200 113 1 callgsubr
          -38 -63 -141 vhcurveto
          -127 280 110 hlineto
          123 73 -31 -104 hvcurveto
          endchar
        </CharString>
        <CharString name="U">
          -43 callgsubr
          -78 callsubr
          endchar
        </CharString>
        <CharString name="Uacute">
          -43 callgsubr
          -78 callsubr
          32 654 -99 callgsubr
        </CharString>
        <CharString name="Ucircumflex">
          -43 callgsubr
          78 134 -78 callsubr
          -48 787 -104 callgsubr
        </CharString>
        <CharString name="Udieresis">
          -43 callgsubr
          74 123 hstemhm
          88 118 26 -48 callsubr
          22 118 hintmask 11110010
          hintmask 11111110
          232 -94 callsubr
          hintmask 11110010
          -33 -711 -103 callsubr
          endchar
        </CharString>
        <CharString name="Ugrave">
          -43 callgsubr
          -39 callgsubr
          473 -58 callgsubr
          13 -653 -103 callsubr
          endchar
        </CharString>
        <CharString name="V">
          55 -41 callgsubr
          3 694 vstem
          416 hmoveto
          281 699 rlineto
          -132 hlineto
          -215 -522 -215 522 rlineto
          -132 hlineto
          281 -4 callgsubr
          endchar
        </CharString>
        <CharString name="W">
          403 -41 callgsubr
          12 1024 vstem
          315 196 rmoveto
          -176 503 rlineto
          -127 hlineto
          244 -4 callgsubr
          117 hlineto
          147 479 rlineto
          8 hlineto
          147 -479 rlineto
          117 hlineto
          244 699 rlineto
          -127 hlineto
          -176 -503 -156 503 rlineto
          -106 hlineto
          endchar
        </CharString>
        <CharString name="X">
          28 -41 callgsubr
          15 643 vstem
          511 hmoveto
          147 hlineto
          -240 359 223 340 rlineto
          -146 hlineto
          -156 -236 rlineto
          -5 hlineto
          -156 236 rlineto
          -146 hlineto
          223 -340 -240 -359 rlineto
          147 hlineto
          172 263 rlineto
          5 hlineto
          endchar
        </CharString>
        <CharString name="Y">
          -72 callsubr
          endchar
        </CharString>
        <CharString name="Yacute">
          -72 callsubr
          137 742 -99 callgsubr
        </CharString>
        <CharString name="Z">
          2 callgsubr
          -61 callsubr
          endchar
        </CharString>
        <CharString name="Zcaron">
          2 callgsubr
          61 134 -61 callsubr
          339 169 -94 callgsubr
        </CharString>
        <CharString name="a">
          -77 callgsubr
          -23 callgsubr
          257 102 hintmask 10111100
          hintmask 01111100
          -106 callsubr
          hintmask 10111100
          -77 callsubr
          hintmask 01111100
          -35 callgsubr
          hintmask 10111100
          -88 callgsubr
          endchar
        </CharString>
        <CharString name="aacute">
          -93 callsubr
          -49 357 -99 callgsubr
        </CharString>
        <CharString name="acircumflex">
          -77 callgsubr
          60 134 -103 callgsubr
          -161 491 -104 callgsubr
        </CharString>
        <CharString name="acute">
          188 628 145 hstem
          338 224 vstem
          440 628 -99 callgsubr
        </CharString>
        <CharString name="adieresis">
          -77 callgsubr
          60 123 -23 callgsubr
          -14 -48 callsubr
          -37 102 hintmask 1011010010000000
          hintmask 0111010010000000
          -106 callsubr
          hintmask 1011010010000000
          -77 callsubr
          hintmask 0111010010000000
          -35 callgsubr
          hintmask 1011010010000000
          -88 callgsubr
          hintmask 1011101100000000
          -261 419 -107 callgsubr
          endchar
        </CharString>
        <CharString name="ae">
          307 -8 96 142 86 128 96 -93 93 -23 callgsubr
          247 113 285 112 hintmask 11101110
          910 230 rmoveto
          64 vlineto
          159 -112 87 -140 -68 -66 -25 -49 -48 vhcurveto
          53 -39 -66 21 -72 hhcurveto
          -77 -70 -19 -58 -73 hvcurveto
          hintmask 11011110
          -88 callsubr
          -24 -145 vlineto
          -126 -89 -43 -111 -104 94 -67 108 70 78 18 78 65 hvcurveto
          -62 47 74 -34 83 hhcurveto
          75 70 18 71 69 hvcurveto
          -64 70 rlineto
          -46 -38 -49 -17 -55 hhcurveto
          -80 -74 53 89 -1 hvcurveto
          -113 -32 rmoveto
          -79 callsubr
          4 65 vhcurveto
          -23 callsubr
          114 87 rmoveto
          hintmask 11101110
          82 7 69 45 74 hhcurveto
          71 58 -41 -87 5 hvcurveto
          endchar
        </CharString>
        <CharString name="agrave">
          -93 callsubr
          -16 357 -18 callgsubr
        </CharString>
        <CharString name="ampersand">
          49 -8 97 538 89 hstemhm
          49 111 -21 111 173 106 hintmask 11101000
          547 330 rmoveto
          -11 -40 -16 -36 -21 -31 -67 70 -27 36 -36 44 rrcurveto
          98 54 62 58 75 vvcurveto
          106 -99 50 -84 vhcurveto
          hintmask 11011000
          -112 -95 -54 -112 -67 28 -33 46 -53 hvcurveto
          hintmask 11101000
          -103 -55 -61 -66 -80 vvcurveto
          -132 113 -72 123 69 79 15 66 72 vhcurveto
          92 -91 75 70 -41 39 -32 31 -29 29 rlinecurve
          21 33 20 40 18 48 rrcurveto
          -337 -183 rmoveto
          -73 -59 41 61 53 48 46 65 35 hvcurveto
          28 -34 56 -64 76 -80 rrcurveto
          -37 -45 -50 -21 -46 hhcurveto
          hintmask 11011000
          -42 463 rmoveto
          47 46 28 38 43 46 -22 -57 -33 -34 -32 -79 -39 vhcurveto
          -40 48 -20 27 33 vvcurveto
          endchar
        </CharString>
        <CharString name="approxequal">
          47 190 112 -32 112 32 112 -32 112 hstemhm
          89 106 302 106 hintmask 01011100
          hintmask 01101100
          603 602 rmoveto
          -67 callsubr
          hintmask 01101100
          -16 callgsubr
          hintmask 10011100
          -224 vmoveto
          -67 callsubr
          hintmask 10011100
          -16 callgsubr
          endchar
        </CharString>
        <CharString name="aring">
          -77 callgsubr
          43 49 111 49 -23 callgsubr
          33 53 110 54 7 102 hintmask 1011111101000000
          hintmask 0111111101000000
          -106 callsubr
          hintmask 1011111101000000
          -77 callsubr
          hintmask 0111111101000000
          -71 vlineto
          -7 687 rmoveto
          hintmask 1011111101000000
          -26 callgsubr
          hintmask 1011111110000000
          -3 -489 rmoveto
          -88 callgsubr
          -51 444 rmoveto
          -59 callsubr
        </CharString>
        <CharString name="asciicircum">
          -251 742 156 hstem
          22 345 vstem
          273 742 rmoveto
          94 hlineto
          -121 156 rlineto
          -102 hlineto
          -122 -156 rlineto
          97 hlineto
          77 83 rlineto
          endchar
        </CharString>
        <CharString name="asciitilde">
          -80 302 102 -34 101 hstemhm
          50 87 -87 465 -88 88 hintmask 01010000
          286 329 rmoveto
          hintmask 10010000
          -18 37 24 -9 32 hhcurveto
          hintmask 10001000
          74 54 46 96 8 hvcurveto
          -88 25 rlineto
          -46 -5 -16 -19 -26 hhcurveto
          -30 -47 30 11 -24 hvcurveto
          hintmask 01100000
          17 -39 -22 9 -33 hhcurveto
          -73 -54 -44 -97 -8 hvcurveto
          87 -25 rlineto
          47 5 16 18 26 hhcurveto
          hintmask 01010000
          30 47 -30 -11 25 hvcurveto
          endchar
        </CharString>
        <CharString name="asterisk">
          -213 540 -20 179 -20 hstem
          185 61 vstem
          337 430 rmoveto
          34 59 -103 51 103 50 -34 58 -94 -62 7 113 rlineto
          -68 hlineto
          7 -113 -94 63 -34 -59 102 -50 -102 -51 34 -58 95 64 -8 -115 rlineto
          68 hlineto
          -8 114 rlineto
          endchar
        </CharString>
        <CharString name="at">
          259 -126 44 103 61 -61 93 304 97 114 44 hstemhm
          51 44 107 101 271 96 137 50 hintmask 1101111110000000
          630 -22 rmoveto
          -42 -45 -75 -18 -64 hhcurveto
          -199 -152 149 198 200 164 164 199 214 135 -176 -206 -105 -44 -60 -38 -31 -24 19 51 hvcurveto
          349 -96 -67 vlineto
          42 -23 -60 39 -63 hhcurveto
          -140 -86 -114 -135 hvcurveto
          hintmask 1011111110000000
          -148 108 -97 109 68 69 33 96 42 vhcurveto
          hintmask 1101111110000000
          -83 3 41 -46 65 hhcurveto
          91 59 97 144 229 -175 182 -224 -225 -182 -182 -226 -223 171 -168 224 71 87 26 41 48 hvcurveto
          -216 477 rmoveto
          87 52 -66 -81 hvcurveto
          hintmask 1011111110000000
          -84 -48 -73 -90 -85 -49 75 83 vhcurveto
          hintmask 1101111110000000
          77 52 69 81 vhcurveto
          endchar
        </CharString>
        <CharString name="atilde">
          -77 callgsubr
          57 -55 callsubr
          41 112 -28 -19 callgsubr
          -47 102 hintmask 1011001001000000
          hintmask 0111001001000000
          -106 callsubr
          hintmask 1011001001000000
          -77 callsubr
          hintmask 0111001001000000
          -35 callgsubr
          hintmask 1011001001000000
          -88 callgsubr
          hintmask 1011101010000000
          57 484 -75 callsubr
          hintmask 1011010101000000
          -97 callsubr
          hintmask 1011101010000000
          -85 callgsubr
        </CharString>
        <CharString name="b">
          27 -8 100 -71 -21 442 98 202 -37 callgsubr
          320 112 hintmask 10111100
          -29 callsubr
          303 -112 vlineto
          hintmask 01111100
          -742 112 vlineto
          hintmask 10111100
          80 vlineto
          -58 53 64 -30 64 hhcurveto
          -56 callsubr
        </CharString>
        <CharString name="backslash">
          -123 21 -21 5 callgsubr
          28 464 vstem
          28 757 rmoveto
          364 -757 rlineto
          100 hlineto
          -364 757 rlineto
          endchar
        </CharString>
        <CharString name="bar">
          -388 -153 935 hstem
          87 83 vstem
          87 -153 rmoveto
          83 935 -83 hlineto
          endchar
        </CharString>
        <CharString name="braceleft">
          -17 callgsubr
          114 100 vstem
          284 -146 rmoveto
          93 vlineto
          -56 -14 12 34 hvcurveto
          235 vlineto
          53 -29 22 -37 6 vhcurveto
          37 7 29 20 55 vvcurveto
          217 vlineto
          69 70 -13 0 vhcurveto
          93 -34 vlineto
          -63 -73 -20 -112 hvcurveto
          -208 vlineto
          -47 -17 -15 -33 vhcurveto
          -24 -93 24 hlineto
          33 17 -14 -46 hvcurveto
          -216 vlineto
          -112 73 -20 63 vhcurveto
          endchar
        </CharString>
        <CharString name="braceright">
          -17 callgsubr
          122 100 vstem
          86 -146 rmoveto
          63 73 20 112 hvcurveto
          216 vlineto
          46 17 14 33 vhcurveto
          24 93 -24 hlineto
          -33 -17 15 47 hvcurveto
          208 vlineto
          112 -73 20 -63 vhcurveto
          -34 -93 hlineto
          0 70 13 -69 vvcurveto
          -217 vlineto
          -55 29 -20 37 -7 vhcurveto
          -37 -6 -29 -22 -53 vvcurveto
          -235 vlineto
          -34 -14 -12 -56 vhcurveto
          -93 vlineto
          endchar
        </CharString>
        <CharString name="bracketleft">
          -2 callsubr
          88 88 vstem
          314 757 rmoveto
          -226 -897 226 84 -138 729 138 hlineto
          endchar
        </CharString>
        <CharString name="bracketright">
          -2 callsubr
          179 88 vstem
          41 673 rmoveto
          138 -729 -138 -84 226 897 -226 hlineto
          endchar
        </CharString>
        <CharString name="breve">
          -103 578 85 hstem
          100 342 vstem
          442 726 rmoveto
          -83 hlineto
          -38 -12 -25 -25 -51 hhcurveto
          -51 -25 25 38 -12 hvcurveto
          -83 hlineto
          -94 7 68 -54 96 hhcurveto
          96 68 54 94 7 hvcurveto
          endchar
        </CharString>
        <CharString name="brokenbar">
          -369 5 callgsubr
          91 94 vstem
          91 430 rmoveto
          94 327 -94 hlineto
          -781 vmoveto
          94 327 -94 hlineto
          endchar
        </CharString>
        <CharString name="bullet">
          -217 187 258 hstem
          85 258 vstem
          85 316 rmoveto
          -71 58 -58 71 71 58 58 71 71 -58 58 -71 -71 -58 -58 -71 vhcurveto
          endchar
        </CharString>
        <CharString name="c">
          -69 -8 102 342 104 hstem
          46 -22 callgsubr
          541 -66 callsubr
          -168 129 -105 142 77 81 31 67 66 hvcurveto
          endchar
        </CharString>
        <CharString name="caron">
          -97 760 8 callgsubr
          100 348 vstem
          326 760 -94 callgsubr
        </CharString>
        <CharString name="ccedilla">
          -68 -25 callgsubr
          157 -79 -21 442 104 hstemhm
          47 112 163 87 hintmask 01011100
          hintmask 01101100
          542 -66 callsubr
          hvcurveto
          hintmask 01011100
          -155 109 -101 129 -15 vhcurveto
          hintmask 10101110
          -33 -62 -71 callsubr
          17 33 rlineto
          hintmask 01101100
          65 8 65 31 56 56 rrcurveto
          endchar
        </CharString>
        <CharString name="cedilla">
          -364 -25 callgsubr
          63 hstemhm
          148 87 hintmask 01110000
          -18 callsubr
          -71 hlineto
          -36 -68 -48 callgsubr
          hvcurveto
          hintmask 10110000
          -40 callsubr
          vhcurveto
          hintmask 01110000
          -26 -57 rlineto
          hintmask 10110000
          -70 callgsubr
          endchar
        </CharString>
        <CharString name="cent">
          -59 15 -21 543 -20 22 -20 hstemhm
          49 112 128 64 hintmask 10111000
          289 -122 rmoveto
          64 116 hlineto
          67 7 67 31 57 58 -66 72 rcurveline
          -34 -35 -41 -27 -50 -5 rrcurveto
          339 vlineto
          50 -5 37 -25 33 -28 66 81 rcurveline
          -51 51 -70 26 -65 5 rrcurveto
          117 -64 vlineto
          hintmask 11011000
          -119 vlineto
          -130 -18 -110 -101 -153 vvcurveto
          -156 111 -101 129 -14 vhcurveto
          -128 273 rmoveto
          87 58 59 70 17 vhcurveto
          -330 vlineto
          -75 20 -53 67 80 vvcurveto
          endchar
        </CharString>
        <CharString name="circumflex">
          29 600 8 callgsubr
          166 348 vstem
          288 734 -104 callgsubr
        </CharString>
        <CharString name="colon">
          -352 -8 149 96 6 callsubr
          72 0 callsubr
          72 -30 callgsubr
          245 vmoveto
          -92 callgsubr
        </CharString>
        <CharString name="comma">
          -364 20 -21 hstem
          66 0 callsubr
          70 -105 rmoveto
          58 hlineto
          60 99 rlineto
          15 24 12 21 26 vvcurveto
          44 -35 31 -41 -38 -35 -31 -44 -30 17 -25 24 -11 vhcurveto
          endchar
        </CharString>
        <CharString name="copyright">
          187 -12 43 122 74 248 75 117 45 hstem
          54 47 124 80 429 -86 callsubr
          -151 -126 rmoveto
          -48 52 rlineto
          -28 -26 -35 -21 -41 hhcurveto
          -71 -57 57 69 76 61 46 65 43 31 -21 -23 27 hvcurveto
          48 59 rlineto
          42 -40 -58 18 -53 hhcurveto
          -107 -97 -76 -124 -121 93 -76 103 55 59 21 50 48 hvcurveto
          endchar
        </CharString>
        <CharString name="currency">
          110 13 -21 51 106 335 107 -49 callgsubr
          324 -14 callsubr
          60 62 rmoveto
          70 -70 94 93 rlineto
          -27 43 52 -15 58 hhcurveto
          58 52 15 27 43 hvcurveto
          95 -93 70 70 -92 91 rlineto
          34 46 20 56 62 vvcurveto
          60 -19 55 -32 45 vhcurveto
          89 89 -71 70 -90 -90 rlineto
          28 -44 -54 17 -59 hhcurveto
          -59 -54 -16 -28 -43 hvcurveto
          -90 89 -71 -70 88 -88 rlineto
          -33 -45 -18 -56 -60 vvcurveto
          -62 19 -57 34 -46 vhcurveto
          227 -3 rmoveto
          -93 -69 69 99 99 69 68 93 93 69 -68 -99 -99 -69 -69 -93 hvcurveto
          endchar
        </CharString>
        <CharString name="d">
          27 -8 99 -70 -21 442 98 202 -3 callgsubr
          hintmask 10111100
          47 266 rmoveto
          -169 123 -105 128 64 72 24 64 45 vhcurveto
          hintmask 01111100
          -80 112 5 callsubr
          -292 vlineto
          64 -46 -64 26 -66 hhcurveto
          hintmask 10111100
          -126 -130 -97 -177 hvcurveto
          277 -175 rmoveto
          -85 -80 67 106 103 74 75 91 84 73 -73 -107 -101 -73 -70 -84 hvcurveto
          endchar
        </CharString>
        <CharString name="dagger">
          -122 -173 -21 586 102 207 -20 hstem
          206 106 vstem
          206 -194 rmoveto
          106 586 176 102 -176 207 -106 -207 -170 -102 170 hlineto
          endchar
        </CharString>
        <CharString name="daggerdbl">
          -128 -173 -21 269 82 235 102 207 -20 hstem
          204 106 vstem
          310 392 rmoveto
          170 102 -170 207 -106 -207 -166 -102 166 -235 -110 -82 110 -269 106 269 107 82 -107 hlineto
          endchar
        </CharString>
        <CharString name="degree">
          -229 408 51 203 53 hstem
          54 52 203 53 vstem
          208 715 rmoveto
          -85 -69 -69 -85 -85 69 -68 85 85 69 68 85 85 -69 69 -85 hvcurveto
          -1 -256 rmoveto
          -56 -45 45 58 55 45 45 56 57 45 -45 -55 -58 -45 -45 -57 hvcurveto
          endchar
        </CharString>
        <CharString name="dieresis">
          -35 601 123 hstem
          166 -48 callsubr
          vstem
          166 663 -107 callgsubr
          endchar
        </CharString>
        <CharString name="divide">
          -77 136 149 55 94 57 6 callsubr
          210 0 callsubr
          210 211 rmoveto
          -102 callgsubr
          355 vmoveto
          -102 callgsubr
          -162 -132 3 callgsubr
        </CharString>
        <CharString name="dollar">
          -26 0 107 -86 -21 22 -21 599 107 -1 -20 21 -20 70 -20 hstemhm
          65 122 96 64 104 122 hintmask 0010011111000000
          hintmask 0100101111000000
          283 -72 rmoveto
          64 72 hlineto
          134 7 92 75 125 vvcurveto
          114 -76 53 -147 35 vhcurveto
          -3 188 hlineto
          47 -7 49 -18 47 -33 65 92 rcurveline
          -65 44 -65 25 -78 6 rrcurveto
          51 -64 vlineto
          hintmask 0010011111000000
          -50 vlineto
          -128 -7 -90 -78 -115 vvcurveto
          -123 78 -47 140 -33 vhcurveto
          -194 vlineto
          -65 10 -54 30 -54 47 -73 -87 rcurveline
          72 -63 84 -37 90 -9 rrcurveto
          hintmask 1001001111000000
          168 194 rmoveto
          -49 -40 -33 -64 -6 vhcurveto
          180 vlineto
          83 -25 21 -25 -42 vvcurveto
          -264 323 rmoveto
          42 34 35 62 5 vhcurveto
          -173 vlineto
          -76 24 -20 23 44 vvcurveto
          endchar
        </CharString>
        <CharString name="dotaccent">
          -316 611 6 callsubr
          112 0 callsubr
          112 686 rmoveto
          -92 callgsubr
        </CharString>
        <CharString name="dotlessi">
          -27 callsubr
          -33 callgsubr
          endchar
        </CharString>
        <CharString name="e">
          -50 callgsubr
          -97 callgsubr
          endchar
        </CharString>
        <CharString name="eacute">
          -50 callgsubr
          158 -20 69 -20 -97 callgsubr
          -88 297 -99 callgsubr
        </CharString>
        <CharString name="ecircumflex">
          -50 callgsubr
          60 134 -97 callgsubr
          -199 429 -104 callgsubr
        </CharString>
        <CharString name="edieresis">
          -50 callgsubr
          60 123 hstemhm
          47 112 3 -48 callsubr
          -6 112 hintmask 11111001
          162 -100 callsubr
          229 -445 rmoveto
          77 vlineto
          hintmask 11110110
          -104 callsubr
          endchar
        </CharString>
        <CharString name="egrave">
          -50 callgsubr
          205 -20 -38 callgsubr
          412 -71 callgsubr
          266 -383 -101 callgsubr
          endchar
        </CharString>
        <CharString name="eight">
          -9 -8 102 229 88 210 92 hstemhm
          57 117 -91 109 252 109 -91 117 hintmask 11110010
          hintmask 11101100
          318 713 rmoveto
          -133 -102 -77 -112 -66 36 -42 39 -32 hvcurveto
          hintmask 11110010
          -58 -37 -43 -58 -85 vvcurveto
          -117 102 -95 159 159 102 95 117 85 -43 58 -58 37 vhcurveto
          hintmask 11110100
          39 32 36 42 66 vvcurveto
          hintmask 11101100
          112 -102 77 -133 vhcurveto
          hintmask 11110010
          -619 vmoveto
          -59 -85 34 78 83 79 34 65 65 79 -34 -83 -78 -85 -34 -59 hvcurveto
          hintmask 11101100
          317 vmoveto
          -65 -61 43 65 56 58 46 68 68 58 -46 -56 -65 -61 -43 -65 hvcurveto
          endchar
        </CharString>
        <CharString name="ellipsis">
          53 -8 6 callsubr
          66 149 60 149 60 149 cntrmask 01110000
          66 -30 callgsubr
          209 hmoveto
          -102 callgsubr
          209 hmoveto
          -92 callgsubr
        </CharString>
        <CharString name="emdash">
          80 227 66 hstem
          82 561 vstem
          82 227 rmoveto
          561 66 -561 hlineto
          endchar
        </CharString>
        <CharString name="endash">
          -107 226 67 hstem
          82 374 vstem
          82 226 rmoveto
          374 67 -374 hlineto
          endchar
        </CharString>
        <CharString name="equal">
          -21 246 94 94 94 hstem
          60 504 vstem
          60 528 rmoveto
          -94 504 94 vlineto
          -504 -188 rmoveto
          -94 504 94 vlineto
          endchar
        </CharString>
        <CharString name="eth">
          -49 -8 98 284 98 230 -20 66 -20 29 -20 hstemhm
          50 109 279 109 hintmask 11101110
          hintmask 11110110
          400 748 rmoveto
          hintmask 11101110
          -85 -54 -14 13 -25 23 -34 27 rlinecurve
          -95 -55 19 -16 37 -28 17 -18 rlinecurve
          -94 -60 57 -54 93 59 3 -3 45 -46 43 -46 32 -53 rlinecurve
          -2 -2 rlineto
          27 -27 -39 10 -42 hhcurveto
          -129 -110 -97 -143 -144 110 -96 138 164 85 116 159 143 -84 127 -92 100 hvcurveto
          hintmask 11110110
          88 57 rlineto
          -161 -604 rmoveto
          -86 -53 67 75 74 53 68 86 87 53 -68 -74 -75 -53 -67 -87 hvcurveto
          endchar
        </CharString>
        <CharString name="exclam">
          -350 -8 149 575 -20 hstemhm
          74 149 -145 140 hintmask 11010000
          78 716 rmoveto
          -129 vlineto
          30 -361 rlineto
          80 hlineto
          30 361 rlineto
          129 vlineto
          hintmask 11100000
          -144 -650 rmoveto
          -40 34 -34 40 41 34 34 40 41 -34 34 -41 -40 -34 -34 -41 vhcurveto
          endchar
        </CharString>
        <CharString name="exclamdown">
          -351 13 -21 572 149 hstemhm
          73 149 -145 139 hintmask 11010000
          216 -8 rmoveto
          126 vlineto
          -29 361 rlineto
          -80 hlineto
          -30 -361 rlineto
          -126 vlineto
          hintmask 11100000
          -4 647 rmoveto
          -41 34 -34 40 41 34 34 41 40 -34 34 -41 -40 -34 -34 -40 vhcurveto
          endchar
        </CharString>
        <CharString name="f">
          -259 -10 callsubr
          hstemhm
          107 112 hintmask 11011000
          hintmask 11101000
          -47 callsubr
          hintmask 11011000
          46 79 rlineto
          hintmask 11101000
          -75 callgsubr
          endchar
        </CharString>
        <CharString name="fi">
          15 21 -21 442 90 85 142 -100 97 -53 -20 hstemhm
          107 112 234 -7 callgsubr
          hintmask 11001101
          hintmask 11010101
          -47 callsubr
          hintmask 11001101
          46 79 rlineto
          hintmask 11010101
          -75 callgsubr
          360 -532 rmoveto
          -15 callgsubr
          hintmask 11100110
          -14 688 -82 callgsubr
          endchar
        </CharString>
        <CharString name="five">
          -66 -8 113 238 102 148 107 hstem
          84 107 223 117 vstem
          486 700 rmoveto
          -402 -336 hlineto
          50 -54 rlineto
          22 40 46 11 43 hhcurveto
          80 71 -39 -82 -80 -67 -37 -75 -91 -68 67 0 hvcurveto
          -63 -86 rlineto
          -27 24 70 -67 131 hhcurveto
          143 113 98 135 142 -117 78 -123 -33 -32 -5 -19 -35 hvcurveto
          172 295 vlineto
          endchar
        </CharString>
        <CharString name="fl">
          15 -10 callsubr
          59 -20 hstemhm
          107 112 248 112 hintmask 11011110
          hintmask 11100110
          -47 callsubr
          hintmask 11011110
          46 79 rlineto
          hintmask 11100110
          -75 callgsubr
          360 -532 rmoveto
          hintmask 11011110
          742 -5 callgsubr
          vlineto
          endchar
        </CharString>
        <CharString name="florin">
          29 -212 101 436 93 242 97 -53 -20 hstemhm
          28 615 hintmask 11101000
          399 325 rmoveto
          143 hlineto
          12 93 rlineto
          -143 hlineto
          22 159 rlineto
          50 7 34 33 44 hhcurveto
          30 22 -16 -19 15 hvcurveto
          hintmask 11011000
          58 79 rlineto
          hintmask 11101000
          36 -35 -49 17 -45 hhcurveto
          -89 -92 -66 -117 -16 hvcurveto
          -21 -156 rlineto
          -69 hlineto
          -12 -93 rlineto
          69 hlineto
          -49 -350 rlineto
          -41 -6 -29 -45 -44 hhcurveto
          -28 -30 17 19 -20 hvcurveto
          -50 -84 -54 callgsubr
          116 59 87 89 13 hvcurveto
          endchar
        </CharString>
        <CharString name="four">
          -73 29 108 474 101 hstem
          -75 123 480 120 vstem
          170 283 rmoveto
          253 416 -15 callsubr
          -257 -419 rlineto
          -104 300 -176 112 176 84 107 -84 128 -112 -128 vlineto
          endchar
        </CharString>
        <CharString name="fraction">
          -10 -41 callgsubr
          -2 641 vstem
          639 699 -36 callgsubr
          endchar
        </CharString>
        <CharString name="g">
          9 -214 101 137 102 324 90 -8 -20 hstemhm
          48 110 303 112 hintmask 11101100
          hintmask 11011100
          573 532 rmoveto
          -112 hlineto
          hintmask 11101100
          -79 vlineto
          46 -35 -58 41 -78 hhcurveto
          -145 -97 -116 -138 -152 100 -110 142 80 64 43 60 32 hvcurveto
          -68 vlineto
          -128 -78 -44 -89 -54 -60 22 37 -49 vhcurveto
          -53 -85 rlineto
          -50 65 81 -25 76 hhcurveto
          141 127 82 200 hvcurveto
          -264 58 rmoveto
          -99 -52 79 81 81 52 83 99 90 62 -74 -90 -90 -62 -70 -90 hvcurveto
          endchar
        </CharString>
        <CharString name="germandbls">
          6 0 98 554 105 hstemhm
          81 118 248 114 -74 118 hintmask 11101000
          305 322 rmoveto
          1 12 12 0 11 hhcurveto
          85 62 -34 -83 -84 -64 -24 -92 hvcurveto
          -22 -98 41 hlineto
          169 86 85 121 81 -42 87 -106 12 hvcurveto
          hintmask 11110000
          77 48 27 55 65 vvcurveto
          79 -43 124 -192 -245 0 -223 -78 vhcurveto
          -456 118 466 vlineto
          115 31 71 107 84 26 -62 -44 -65 -42 -51 -100 -15 vhcurveto
          endchar
        </CharString>
        <CharString name="grave">
          188 745 -20 hstem
          316 224 vstem
          540 -71 callgsubr
          endchar
        </CharString>
        <CharString name="greater">
          -53 117 561 hstem
          428 119 vstem
          547 -53 callgsubr
          endchar
        </CharString>
        <CharString name="greaterequal">
          -30 -52 98 hstem
          429 119 vstem
          548 -53 callgsubr
          -472 -288 rmoveto
          -98 472 98 vlineto
          endchar
        </CharString>
        <CharString name="guillemotleft">
          -98 4 callsubr
          56 425 vstem
          283 416 -64 callgsubr
          313 176 -64 callgsubr
          endchar
        </CharString>
        <CharString name="guillemotright">
          -98 4 callsubr
          66 425 vstem
          379 240 -64 callsubr
          -83 -176 -64 callsubr
          endchar
        </CharString>
        <CharString name="guilsinglleft">
          -296 4 callsubr
          56 227 vstem
          283 416 -64 callgsubr
          endchar
        </CharString>
        <CharString name="guilsinglright">
          -296 4 callsubr
          66 227 vstem
          181 240 -64 callsubr
          endchar
        </CharString>
        <CharString name="h">
          1 -25 callsubr
          201 -20 hstem
          81 -20 callsubr
          vstem
          -87 callsubr
          -72 -39 -66 -32 vhcurveto
          306 -112 -741 112 vlineto
          endchar
        </CharString>
        <CharString name="hbar">
          1 -25 callsubr
          34 87 -87 167 hstemhm
          81 -20 callsubr
          hintmask 11011100
          hintmask 11101100
          351 661 rmoveto
          -158 hlineto
          hintmask 11011100
          80 -112 vlineto
          hintmask 11101100
          -80 -37 vlineto
          hintmask 11011100
          -87 37 -574 112 288 vlineto
          -90 callsubr
          -72 -39 -66 -32 vhcurveto
          139 158 vlineto
          endchar
        </CharString>
        <CharString name="hungarumlaut">
          -139 746 -20 hstem
          52 418 vstem
          154 601 rmoveto
          -96 callgsubr
          296 hmoveto
          -98 callsubr
        </CharString>
        <CharString name="hyphen">
          -169 246 105 hstem
          72 332 vstem
          72 246 rmoveto
          332 105 -332 hlineto
          endchar
        </CharString>
        <CharString name="i">
          -38 callsubr
          105 142 hstemhm
          67 -7 callgsubr
          hintmask 11101000
          193 hmoveto
          -15 callgsubr
          hintmask 11110000
          -14 688 -82 callgsubr
          endchar
        </CharString>
        <CharString name="iacute">
          -27 callsubr
          190 600 rmoveto
          122 91 -110 49 -106 -140 rlineto
          -15 -68 -55 callgsubr
          endchar
        </CharString>
        <CharString name="icircumflex">
          -38 callsubr
          88 8 callgsubr
          81 -22 callgsubr
          -33 callgsubr
          -103 202 -104 callgsubr
        </CharString>
        <CharString name="idieresis">
          -38 callsubr
          88 123 hstemhm
          -8 123 -34 112 -16 123 hintmask 11101000
          hintmask 11110100
          -8 -100 callsubr
          hintmask 11101000
          -96 -130 -55 callgsubr
          endchar
        </CharString>
        <CharString name="igrave">
          -38 callsubr
          233 -41 callsubr
          vstem
          200 -71 callgsubr
          -17 -68 -55 callgsubr
          endchar
        </CharString>
        <CharString name="ij">
          -42 -212 104 129 -57 callsubr
          105 142 hstemhm
          67 -7 callgsubr
          201 142 -126 112 hintmask 11110101
          193 hmoveto
          -15 callgsubr
          hintmask 11111001
          -14 688 -82 callgsubr
          343 -713 -79 callgsubr
          hintmask 11110110
          -16 156 -82 callgsubr
          endchar
        </CharString>
        <CharString name="infinity">
          223 82 93 176 90 hstem
          71 91 544 91 vstem
          434 322 rmoveto
          62 -52 -57 57 -87 hhcurveto
          -104 -63 -79 -100 -102 66 -78 105 86 51 53 58 55 hvcurveto
          -58 55 51 -53 86 hhcurveto
          105 66 78 102 100 -63 79 -104 -87 -57 -57 -62 -52 hvcurveto
          -58 -63 rmoveto
          -36 -32 -52 -48 -51 hhcurveto
          -49 -30 40 49 48 29 39 47 51 54 -57 -35 33 hvcurveto
          116 hmoveto
          35 33 54 57 51 hhcurveto
          47 29 -39 -48 -49 -30 -40 -49 -51 -52 48 36 -32 hvcurveto
          endchar
        </CharString>
        <CharString name="integral">
          -257 -170 98 847 93 hstemhm
          139 98 -82 97 hintmask 11010000
          372 855 rmoveto
          6 -11 -26 7 -24 hhcurveto
          hintmask 11100000
          -140 -32 -115 -151 hvcurveto
          hintmask 11010000
          -168 16 -144 -177 vvcurveto
          -105 -6 -80 -73 -20 -17 7 5 -10 vhcurveto
          -16 -93 rlineto
          -8 14 32 -9 30 hhcurveto
          135 28 124 144 hvcurveto
          hintmask 11100000
          175 -15 156 162 vvcurveto
          100 1 84 82 15 14 -5 -5 10 vhcurveto
          endchar
        </CharString>
        <CharString name="itilde">
          -38 callsubr
          85 -55 callsubr
          -20 74 27 112 44 75 hintmask 11100110
          -33 callgsubr
          119 195 -75 callsubr
          hintmask 11011110
          -97 callsubr
          hintmask 11100110
          -85 callgsubr
        </CharString>
        <CharString name="j">
          -212 104 640 -20 105 142 hstemhm
          65 142 -126 112 hintmask 11101000
          81 -25 -79 callgsubr
          hintmask 11110000
          -16 156 -82 callgsubr
          endchar
        </CharString>
        <CharString name="jcircumflex">
          -212 104 640 -20 88 8 callgsubr
          81 -22 callgsubr
          81 -25 -79 callgsubr
          7 202 -104 callgsubr
        </CharString>
        <CharString name="k">
          -64 -38 callsubr
          230 -41 callsubr
          vstem
          -63 callgsubr
          endchar
        </CharString>
        <CharString name="kcedilla">
          -64 -25 callgsubr
          63 -38 callsubr
          230 -37 callgsubr
          121 87 hintmask 01011110
          -63 callgsubr
          hintmask 10101111
          -217 hmoveto
          -71 hlineto
          -36 -68 -65 callsubr
          hintmask 01011110
          -26 -57 rlineto
          hintmask 10101111
          -70 callgsubr
          endchar
        </CharString>
        <CharString name="kgreenlandic">
          -64 -27 callsubr
          -58 callsubr
          226 -112 -532 -46 callgsubr
          endchar
        </CharString>
        <CharString name="l">
          21 -21 742 -41 callsubr
          vstem
          193 hmoveto
          742 -5 callgsubr
          vlineto
          endchar
        </CharString>
        <CharString name="ldot">
          -242 21 -21 244 149 349 -41 callsubr
          71 0 callsubr
          193 hmoveto
          742 -5 callgsubr
          vlineto
          183 -37 callsubr
        </CharString>
        <CharString name="less">
          -53 117 561 hstem
          45 119 vstem
          45 -53 callsubr
          endchar
        </CharString>
        <CharString name="lessequal">
          -30 -52 98 hstem
          67 119 vstem
          67 -53 callsubr
          -414 vmoveto
          -98 472 98 vlineto
          endchar
        </CharString>
        <CharString name="logicalnot">
          183 357 88 hstem
          654 82 vstem
          67 445 rmoveto
          -88 587 -269 82 357 vlineto
          endchar
        </CharString>
        <CharString name="lozenge">
          5 33 435 hstem
          91 468 vstem
          91 33 rmoveto
          468 435 -468 hlineto
          endchar
        </CharString>
        <CharString name="lslash">
          -325 -41 callgsubr
          104 -22 callgsubr
          22 216 rmoveto
          82 23 rlineto
          -239 112 270 vlineto
          75 22 rlineto
          105 vlineto
          -75 -22 rlineto
          324 -112 -355 vlineto
          -82 -23 rlineto
          endchar
        </CharString>
        <CharString name="m">
          369 -33 callsubr
          256 -20 callsubr
          hintmask 11011100
          193 288 rmoveto
          106 74 45 70 77 35 -45 -102 vhcurveto
          -292 112 296 vlineto
          100 3 72 43 69 hhcurveto
          77 45 -45 -102 hvcurveto
          -292 112 326 vlineto
          144 -86 70 -115 -76 -65 -30 -74 -56 vhcurveto
          70 -30 -61 34 -80 hhcurveto
          -73 -72 -39 -66 -32 hvcurveto
          hintmask 10111100
          -32 callsubr
          endchar
        </CharString>
        <CharString name="macron">
          -221 600 87 hstem
          59 307 vstem
          366 687 rmoveto
          -307 -87 307 hlineto
          endchar
        </CharString>
        <CharString name="minus">
          -77 340 94 hstem
          48 472 vstem
          48 434 3 callgsubr
        </CharString>
        <CharString name="mu">
          -3 -11 callgsubr
          101 -72 -57 callsubr
          hstemhm
          86 -20 callsubr
          hintmask 11011100
          86 -194 rmoveto
          112 203 hlineto
          -11 26 30 -6 33 hhcurveto
          73 68 39 66 36 hvcurveto
          hintmask 10111100
          -45 callsubr
          -288 vlineto
          hintmask 11011100
          -78 callgsubr
          vlineto
          endchar
        </CharString>
        <CharString name="multiply">
          -80 146 468 hstem
          48 469 vstem
          283 443 rmoveto
          -170 171 -64 -64 170 -169 -171 -171 64 -64 171 171 171 -171 63 64 -170 171 169 169 -63 64 rlineto
          endchar
        </CharString>
        <CharString name="n">
          -81 callsubr
          endchar
        </CharString>
        <CharString name="nacute">
          -81 callsubr
          172 628 -99 callgsubr
        </CharString>
        <CharString name="nine">
          -26 -8 106 156 104 251 103 hstem
          51 107 290 -22 callgsubr
          77 63 rmoveto
          -31 40 58 -40 103 hhcurveto
          147 135 99 265 188 -67 168 -201 -135 -106 -87 -144 -139 99 -88 122 84 66 47 30 26 hvcurveto
          -134 -1 -51 -99 -130 hhcurveto
          -68 -62 52 0 hvcurveto
          293 331 rmoveto
          -78 -65 -45 -75 -86 -45 60 69 70 54 52 83 76 58 -61 -67 vhcurveto
          endchar
        </CharString>
        <CharString name="notequal">
          -10 225 108 99 108 160 -20 hstem
          64 504 vstem
          64 333 rmoveto
          -108 139 vlineto
          -74 -160 rlineto
          100 hlineto
          74 160 rlineto
          265 108 -214 hlineto
          46 99 rlineto
          168 108 -118 hlineto
          75 160 rlineto
          -100 hlineto
          -75 -160 rlineto
          -286 -108 236 hlineto
          -46 -99 rlineto
          endchar
        </CharString>
        <CharString name="ntilde">
          1 -25 callsubr
          -8 -20 85 -55 callsubr
          81 112 -28 -19 callgsubr
          -38 112 hintmask 1101010010000000
          -81 callgsubr
          hintmask 1011010100000000
          -32 callsubr
          304 727 -75 callsubr
          hintmask 1100101010000000
          -97 callsubr
          hintmask 1101010100000000
          31 53 -47 48 hhcurveto
          hintmask 1011010100000000
          -67 callgsubr
        </CharString>
        <CharString name="numbersign">
          90 21 -21 160 110 166 110 170 -20 hstem
          43 650 vstem
          671 436 rmoveto
          22 110 rlineto
          -112 hlineto
          31 170 rlineto
          -112 hlineto
          -29 -170 rlineto
          -147 hlineto
          29 170 rlineto
          -111 hlineto
          -29 -170 rlineto
          -111 hlineto
          -22 -110 rlineto
          114 hlineto
          -29 -166 rlineto
          -100 hlineto
          -22 -110 rlineto
          103 hlineto
          -28 -160 rlineto
          112 hlineto
          28 160 rlineto
          147 hlineto
          -28 -160 rlineto
          111 hlineto
          28 160 rlineto
          119 hlineto
          22 110 rlineto
          -123 hlineto
          29 166 rlineto
          -110 hmoveto
          -30 -166 rlineto
          -147 hlineto
          30 166 rlineto
          endchar
        </CharString>
        <CharString name="o">
          -35 callsubr
          -96 callsubr
          endchar
        </CharString>
        <CharString name="oacute">
          -35 callsubr
          205 -20 -96 callsubr
          51 608 -99 callgsubr
        </CharString>
        <CharString name="ocircumflex">
          -35 callsubr
          60 134 -96 callsubr
          -51 742 -104 callgsubr
        </CharString>
        <CharString name="odieresis">
          -35 callsubr
          60 123 hstemhm
          0 callgsubr
          10 -48 callsubr
          18 112 hintmask 11010010
          168 -100 callsubr
          hintmask 11111110
          -27 -570 -76 callsubr
        </CharString>
        <CharString name="oe">
          421 -8 96 -96 100 125 88 135 100 -96 96 hstemhm
          -24 callgsubr
          113 305 112 hintmask 01110111
          1024 217 rmoveto
          77 vlineto
          159 -122 87 -140 -81 -82 -36 -69 -51 vhcurveto
          64 -50 -79 41 -93 hhcurveto
          -89 callsubr
          93 79 40 64 50 hvcurveto
          -67 50 80 -37 86 hhcurveto
          75 80 18 71 69 hvcurveto
          hintmask 10110111
          -84 callgsubr
          hintmask 01110111
          -281 -125 -92 callsubr
          281 213 rmoveto
          hintmask 01101111
          -60 callgsubr
          endchar
        </CharString>
        <CharString name="ogonek">
          -430 -212 66 hstem
          18 68 vstem
          71 -8 rmoveto
          -21 -30 rlineto
          -18 -26 -14 -34 -29 vvcurveto
          -51 42 -34 46 47 27 28 28 17 vhcurveto
          -48 34 rlineto
          -11 -6 -13 -13 -18 hhcurveto
          -16 -10 11 20 13 5 23 18 30 hvcurveto
          25 41 rlineto
          endchar
        </CharString>
        <CharString name="ograve">
          -35 callsubr
          205 -20 -39 callsubr
          395 -71 callgsubr
          33 -508 -76 callsubr
        </CharString>
        <CharString name="one">
          -264 21 -21 594 105 hstem
          171 -22 callgsubr
          29 -11 callsubr
          -105 142 -594 112 7 callsubr
          endchar
        </CharString>
        <CharString name="onehalf">
          283 0 66 -53 -21 364 62 220 61 58 -20 hstemhm
          118 65 622 67 hintmask 10111110
          623 757 rmoveto
          hintmask 01111110
          -36 callsubr
          110 -463 rmoveto
          -30 -27 -31 -49 -50 vhcurveto
          hintmask 10111110
          -124 -10 callgsubr
          96 97 rlineto
          59 60 18 33 41 vvcurveto
          78 -64 43 -68 -67 -39 -31 -50 -33 vhcurveto
          54 -32 rlineto
          26 18 24 25 42 hhcurveto
          hintmask 01111110
          38 28 -25 -37 hvcurveto
          hintmask 10111110
          -770 405 -30 callsubr
        </CharString>
        <CharString name="onequarter">
          218 -1 callsubr
          472 61 58 -20 hstemhm
          118 65 526 65 hintmask 10011110
          591 757 rmoveto
          hintmask 01011110
          -36 callsubr
          hintmask 10011110
          -12 callgsubr
          hintmask 00111110
          -4 callsubr
          hintmask 10011110
          -103 65 vlineto
          hintmask 00111110
          103 50 vlineto
          hintmask 10011110
          63 -50 75 -65 -75 vlineto
          -674 533 -30 callsubr
        </CharString>
        <CharString name="onesuperior">
          -377 638 61 hstem
          124 65 vstem
          41 699 -30 callsubr
        </CharString>
        <CharString name="ordfeminine">
          -293 462 44 73 36 58 43 hstem
          59 52 119 47 vstem
          277 466 rmoveto
          159 vlineto
          68 -46 23 -53 -35 -33 -9 -26 -33 vhcurveto
          23 -33 rlineto
          16 24 20 9 27 hhcurveto
          30 25 -12 -37 hvcurveto
          -9 -68 vlineto
          -58 -41 -22 -51 -49 39 -31 50 37 28 17 20 17 hvcurveto
          -33 vlineto
          -5 92 rmoveto
          -32 -29 -20 -36 -27 -22 12 25 28 26 8 30 vhcurveto
          58 hlineto
          endchar
        </CharString>
        <CharString name="ordmasculine">
          -267 456 48 165 47 hstem
          56 53 160 53 vstem
          189 504 rmoveto
          -46 -34 33 49 49 34 34 46 46 34 -34 -49 -49 -34 -33 -46 hvcurveto
          -48 vmoveto
          77 56 58 72 72 -56 58 -77 -77 -56 -58 -72 -72 56 -58 77 hvcurveto
          endchar
        </CharString>
        <CharString name="oslash">
          7 -8 100 -72 -21 441 100 hstemhm
          -24 callgsubr
          112 hintmask 10111000
          326 -8 rmoveto
          -62 callsubr
          93 -44 81 -71 50 hvcurveto
          62 132 rlineto
          -100 hlineto
          -44 -94 rlineto
          8 -26 -28 4 -29 hhcurveto
          -69 callsubr
          -100 50 -86 81 -48 hvcurveto
          -64 -137 rlineto
          100 hlineto
          hintmask 01111000
          48 104 rlineto
          hintmask 10111000
          -4 21 21 -3 23 hhcurveto
          -168 274 rmoveto
          103 71 71 97 14 13 -1 -3 13 vhcurveto
          -145 -310 rlineto
          -39 31 -24 49 60 vvcurveto
          168 -174 rmoveto
          -7 -7 0 1 -7 hvcurveto
          140 299 rlineto
          31 -30 18 -44 -52 vvcurveto
          -103 -71 -71 -97 vhcurveto
          endchar
        </CharString>
        <CharString name="otilde">
          -35 callsubr
          57 -55 callsubr
          0 callgsubr
          2 -19 callgsubr
          2 112 hintmask 11101001
          -101 callsubr
          hintmask 11101010
          166 735 -75 callsubr
          hintmask 11010101
          -97 callsubr
          hintmask 11101010
          -85 callgsubr
        </CharString>
        <CharString name="p">
          27 -11 callgsubr
          100 350 98 -8 -37 callgsubr
          320 112 hintmask 11101100
          -29 callsubr
          hintmask 11011100
          93 -112 -726 112 274 vlineto
          -58 53 60 -30 68 hhcurveto
          hintmask 11101100
          -56 callsubr
        </CharString>
        <CharString name="paragraph">
          26 662 95 hstem
          277 90 112 93 vstem
          35 556 rmoveto
          -75 40 -117 156 14 16 1 2 16 vhcurveto
          -479 90 774 112 -774 93 869 -299 vlineto
          -172 -66 -99 -102 hvcurveto
          endchar
        </CharString>
        <CharString name="parenleft">
          -313 5 callgsubr
          50 111 vstem
          161 312 rmoveto
          158 64 183 74 104 vhcurveto
          -119 hlineto
          -58 -80 -72 -186 -179 vvcurveto
          -179 72 -186 58 -80 vhcurveto
          119 hlineto
          -74 104 -64 183 158 vvcurveto
          endchar
        </CharString>
        <CharString name="parenright">
          -313 5 callgsubr
          171 111 vstem
          171 312 rmoveto
          -158 -64 -183 -74 -104 vhcurveto
          119 hlineto
          58 80 72 186 179 vvcurveto
          179 -72 186 -58 80 vhcurveto
          -119 hlineto
          74 -104 64 -183 -158 vvcurveto
          endchar
        </CharString>
        <CharString name="partialdiff">
          -28 -8 109 245 99 168 100 hstem
          48 111 280 -14 callsubr
          143 569 rmoveto
          0 51 44 68 141 24 -101 -106 11 vhcurveto
          1 -12 0 -6 -12 vvcurveto
          31 -25 -62 38 -86 hhcurveto
          -93 -125 -64 -139 -144 103 -106 137 202 67 173 194 257 -135 97 -148 -97 -57 -38 -29 -39 hvcurveto
          354 -400 rmoveto
          -85 -11 -56 -60 -81 hhcurveto
          -80 -47 50 78 -1 hvcurveto
          72 -1 56 45 64 hhcurveto
          65 50 -25 -49 44 hvcurveto
          endchar
        </CharString>
        <CharString name="percent">
          141 -8 85 -56 -21 219 92 86 87 142 90 -17 -20 hstemhm
          44 -3 callsubr
          hintmask 1011101111000000
          346 557 -83 callgsubr
          364 142 -36 callgsubr
          54 555 -34 callsubr
          -403 -65 callgsubr
          hintmask 0111011111000000
          -80 callgsubr
          endchar
        </CharString>
        <CharString name="period">
          -365 -8 6 callsubr
          66 0 callsubr
          66 -30 callgsubr
          endchar
        </CharString>
        <CharString name="periodcentered">
          -354 244 6 callsubr
          71 0 callsubr
          71 -37 callsubr
        </CharString>
        <CharString name="perthousand">
          521 -8 85 -56 -21 219 92 83 87 142 90 -14 -20 hstemhm
          48 -3 callsubr
          81 95 115 92 hintmask 1011101111110000
          350 554 -83 callgsubr
          364 145 -36 callgsubr
          54 552 -34 callsubr
          -400 -65 callgsubr
          -40 -24 -31 -33 -31 -27 31 40 40 24 31 33 31 27 -31 -40 vhcurveto
          475 4 -65 callgsubr
          hintmask 0100010001000000
          -80 callgsubr
          endchar
        </CharString>
        <CharString name="pi">
          101 21 -21 432 100 hstem
          30 97 99 112 153 -22 callgsubr
          135 322 rmoveto
          -5 11 -3 13 13 vvcurveto
          44 33 29 50 vhcurveto
          16 hlineto
          -3 -121 -30 -200 -37 -111 rrcurveto
          111 hlineto
          37 97 29 215 5 120 rrcurveto
          153 -432 112 432 116 100 -516 hlineto
          -117 -56 -70 -89 -29 7 -29 14 -28 hvcurveto
          endchar
        </CharString>
        <CharString name="plus">
          -77 340 1 callsubr
          150 rmoveto
          90 190 191 94 -191 188 -90 -188 -191 -94 191 hlineto
          endchar
        </CharString>
        <CharString name="plusminus">
          -77 136 84 191 1 callsubr
          276 rmoveto
          90 135 191 94 -191 133 -90 -133 -191 -94 191 hlineto
          -191 -191 rmoveto
          -84 472 84 vlineto
          endchar
        </CharString>
        <CharString name="product">
          156 -191 -21 887 113 hstem
          92 124 369 124 vstem
          709 -212 rmoveto
          1000 -617 -1000 124 887 369 -887 vlineto
          endchar
        </CharString>
        <CharString name="q">
          27 -11 callgsubr
          100 350 98 -8 -3 callgsubr
          hintmask 11101100
          47 266 rmoveto
          -166 123 -108 128 68 60 30 58 53 vhcurveto
          -274 112 vlineto
          hintmask 11011100
          726 -112 -93 vlineto
          hintmask 11101100
          72 -47 -66 29 -66 hhcurveto
          -126 -127 -97 -177 hvcurveto
          277 -174 rmoveto
          -85 -80 67 106 102 74 75 91 84 73 -73 -106 -101 -73 -70 -84 hvcurveto
          endchar
        </CharString>
        <CharString name="question">
          -137 -5 148 467 104 hstemhm
          170 154 -135 113 34 119 hintmask 11011000
          302 217 rmoveto
          45 vlineto
          49 16 12 34 34 vhcurveto
          55 51 48 40 82 vvcurveto
          119 -87 65 -112 -121 -85 -70 -120 -14 vhcurveto
          121 hlineto
          51 5 36 35 53 hhcurveto
          49 36 -37 -50 -23 -8 -22 -15 -16 hvcurveto
          -73 -73 rlineto
          -39 -40 -12 -15 -56 vvcurveto
          -61 vlineto
          hintmask 11101000
          -19 -149 rmoveto
          -41 37 -32 40 42 35 34 41 41 -36 32 -41 -42 -35 -34 -41 vhcurveto
          endchar
        </CharString>
        <CharString name="questiondown">
          -137 -7 104 467 148 hstemhm
          53 119 12 154 -132 113 hintmask 11101000
          206 490 rmoveto
          -45 vlineto
          -49 -16 -12 -34 -34 vhcurveto
          -55 -51 -48 -40 -82 vvcurveto
          -119 87 -65 112 121 85 70 120 14 vhcurveto
          -121 hlineto
          -51 -5 -36 -35 -53 hhcurveto
          -49 -36 37 50 23 8 22 15 16 hvcurveto
          73 73 rlineto
          39 40 12 15 56 vvcurveto
          61 vlineto
          hintmask 11110000
          19 149 rmoveto
          41 -37 32 -40 -42 -35 -34 -41 -41 36 -32 41 42 35 34 41 vhcurveto
          endchar
        </CharString>
        <CharString name="quotedbl">
          -271 453 246 hstem
          77 78 64 78 vstem
          77 453 -7 callsubr
          142 -246 -7 callsubr
          endchar
        </CharString>
        <CharString name="quotedblbase">
          -276 -81 200 hstemhm
          46 127 25 127 hintmask 11000000
          -49 callsubr
          hintmask 11100000
          -52 callgsubr
        </CharString>
        <CharString name="quotedblleft">
          -275 505 200 -86 86 0 -20 hstemhm
          35 127 26 127 hintmask 00110000
          -9 callsubr
          hintmask 10010000
          -27 callgsubr
          37 27 26 37 vhcurveto
          hintmask 01010000
          4 callgsubr
          vhcurveto
          192 86 rmoveto
          hintmask 00111000
          -61 hlineto
          -59 -85 rlineto
          hintmask 10011000
          -27 callgsubr
          37 27 26 37 vhcurveto
          hintmask 01011000
          4 callgsubr
          vhcurveto
          endchar
        </CharString>
        <CharString name="quotedblright">
          -276 500 200 0 -20 hstemhm
          46 127 25 127 hintmask 01100000
          hintmask 10100000
          -52 callsubr
          hintmask 10110000
          -52 callgsubr
        </CharString>
        <CharString name="quoteleft">
          -429 619 86 0 -20 hstemhm
          35 127 hintmask 01100000
          -9 callsubr
          -27 callgsubr
          vhcurveto
          hintmask 10100000
          37 27 26 37 4 callgsubr
          hvcurveto
          endchar
        </CharString>
        <CharString name="quoteright">
          -428 700 -20 hstem
          46 127 vstem
          -52 callsubr
          endchar
        </CharString>
        <CharString name="quotesinglbase">
          -428 -81 200 hstem
          46 127 vstem
          -49 callsubr
          endchar
        </CharString>
        <CharString name="quotesingle">
          -413 453 246 0 -20 hstemhm
          77 78 hintmask 01100000
          hintmask 10100000
          77 453 -7 callsubr
          endchar
        </CharString>
        <CharString name="r">
          -248 21 -13 callsubr
          hintmask 10110000
          hintmask 11010000
          365 540 -21 callgsubr
          hintmask 10110000
          -28 callsubr
          hintmask 11010000
          -20 callgsubr
          endchar
        </CharString>
        <CharString name="radical">
          72 311 99 347 -20 hstem
          24 688 vstem
          24 311 rmoveto
          101 hlineto
          152 -467 rlineto
          136 hlineto
          299 913 rlineto
          -113 hlineto
          -253 -782 -139 435 rlineto
          -183 hlineto
          endchar
        </CharString>
        <CharString name="rcaron">
          -248 21 -21 427 113 -8 -20 88 134 -31 callsubr
          hintmask 10111000
          hintmask 11011000
          365 540 -21 callgsubr
          hintmask 10111000
          -28 callsubr
          hintmask 11011000
          -20 callgsubr
          -98 173 -94 callgsubr
        </CharString>
        <CharString name="rcommaaccent">
          -248 -250 195 76 -13 callsubr
          hintmask 11011000
          41 -250 -9 callgsubr
          hintmask 11101000
          259 595 -21 callgsubr
          hintmask 11011000
          -28 callsubr
          hintmask 11101000
          -20 callgsubr
          endchar
        </CharString>
        <CharString name="registered">
          187 -12 43 257 60 141 59 119 45 hstem
          54 47 177 68 178 67 143 -86 callsubr
          -143 70 rmoveto
          89 -46 39 -120 vhcurveto
          -147 -391 68 131 69 hlineto
          17 hlineto
          94 -131 rlineto
          84 hlineto
          -104 141 rlineto
          55 16 30 36 70 vvcurveto
          -67 hmoveto
          -47 -18 -25 -79 vhcurveto
          -81 141 83 hlineto
          70 25 -17 -52 hvcurveto
          endchar
        </CharString>
        <CharString name="ring">
          -268 583 49 111 49 hstem
          80 53 110 54 vstem
          297 687 rmoveto
          -26 callgsubr
          -54 hmoveto
          -59 callsubr
        </CharString>
        <CharString name="s">
          -139 -8 97 357 94 -90 callgsubr
          endchar
        </CharString>
        <CharString name="scaron">
          -139 -8 97 357 94 60 134 -90 callgsubr
          -156 436 -94 callgsubr
        </CharString>
        <CharString name="section">
          -35 -138 93 693 94 hstemhm
          51 94 -50 107 220 105 -53 93 hintmask 11100100
          145 317 rmoveto
          50 53 24 56 78 142 -24 -78 -50 -53 -31 -68 -121 -87 46 63 vhcurveto
          hintmask 11010100
          57 258 rmoveto
          40 36 33 63 56 48 -14 -41 55 vhcurveto
          57 80 rlineto
          48 -67 -59 21 -88 hhcurveto
          -120 -88 -71 -106 -48 26 -43 55 -22 hvcurveto
          hintmask 11101000
          -83 -16 -42 -63 -60 vvcurveto
          -114 94 -41 125 -36 vhcurveto
          110 -32 42 -23 -44 vvcurveto
          -47 -41 -21 -66 -76 -57 32 49 -59 vhcurveto
          -64 -76 rlineto
          -65 73 88 -33 92 hhcurveto
          135 80 78 88 43 -25 57 -67 24 hvcurveto
          hintmask 11100100
          98 23 34 64 60 vvcurveto
          101 -71 42 -149 36 vhcurveto
          hintmask 11010100
          -117 28 -28 21 48 vvcurveto
          endchar
        </CharString>
        <CharString name="semicolon">
          -349 20 -21 238 6 callsubr
          73 0 callsubr
          77 -105 rmoveto
          58 hlineto
          61 99 rlineto
          14 24 13 22 26 vvcurveto
          44 -35 31 -42 -38 -35 -31 -44 -30 18 -25 23 -12 vhcurveto
          -41 313 rmoveto
          -92 callgsubr
        </CharString>
        <CharString name="seven">
          -79 21 -21 592 107 hstem
          46 107 vstem
          46 498 rmoveto
          107 94 248 hlineto
          -289 -592 rlineto
          130 hlineto
          296 594 rlineto
          105 -492 vlineto
          endchar
        </CharString>
        <CharString name="six">
          -25 -8 103 251 104 156 106 hstem
          60 112 293 104 vstem
          543 641 rmoveto
          31 -40 -58 40 -103 hhcurveto
          -147 -135 -99 -265 -188 67 -168 201 135 106 87 144 139 -99 88 -122 -84 -66 -47 -30 -26 hvcurveto
          134 1 51 99 130 hhcurveto
          68 62 -52 0 hvcurveto
          -293 -331 rmoveto
          78 65 45 75 86 48 -60 -69 -70 -57 -52 -83 -76 -58 61 67 vhcurveto
          endchar
        </CharString>
        <CharString name="slash">
          -58 -117 928 hstem
          28 533 vstem
          461 811 rmoveto
          -433 -928 rlineto
          100 hlineto
          433 928 rlineto
          endchar
        </CharString>
        <CharString name="space">
          endchar
        </CharString>
        <CharString name="sterling">
          -29 0 105 182 98 247 110 hstem
          145 -14 callsubr
          263 516 rmoveto
          88 55 28 56 48 34 -28 -40 24 vhcurveto
          83 66 rlineto
          71 -42 -66 41 -89 hhcurveto
          -120 -101 -60 -172 hvcurveto
          -125 -86 -98 86 -182 -82 -105 498 105 -298 182 167 98 -167 vlineto
          endchar
        </CharString>
        <CharString name="summation">
          58 -212 113 774 113 hstem
          37 626 vstem
          663 -212 rmoveto
          113 -453 vlineto
          286 394 -267 380 rlineto
          414 113 -593 -89 hlineto
          290 -405 -303 -417 rlineto
          -89 vlineto
          endchar
        </CharString>
        <CharString name="t">
          -227 -8 97 353 90 167 -20 hstem
          107 -22 callgsubr
          219 442 rmoveto
          140 90 -140 167 -112 -167 -67 -90 67 -267 hlineto
          -117 82 -66 89 45 47 17 36 40 vhcurveto
          -46 79 rlineto
          -19 -18 -24 -16 -30 hhcurveto
          -44 -29 33 50 hvcurveto
          endchar
        </CharString>
        <CharString name="thorn">
          27 -11 callgsubr
          99 351 98 202 -41 callsubr
          312 120 vstem
          625 266 rmoveto
          156 -104 118 -156 -109 -63 -81 0 vhcurveto
          283 -112 -936 112 267 vlineto
          0 55 -81 115 160 102 114 160 vhcurveto
          -120 hmoveto
          -91 -69 -84 -91 -93 -61 82 93 93 61 83 93 93 67 -83 -93 vhcurveto
          endchar
        </CharString>
        <CharString name="three">
          -67 -9 108 228 91 176 105 hstem
          409 -22 callgsubr
          330 594 rmoveto
          -162 -188 rlineto
          -90 vlineto
          8 26 26 3 23 hhcurveto
          108 58 -50 -63 -82 -66 -33 -74 -59 -68 23 37 -53 hvcurveto
          -50 -95 rlineto
          -49 73 82 -24 74 hhcurveto
          138 115 81 148 100 -69 94 -135 4 hvcurveto
          169 189 rlineto
          92 -409 -105 vlineto
          endchar
        </CharString>
        <CharString name="threequarters">
          256 -1 callsubr
          114 64 135 53 105 62 58 -20 hstemhm
          63 242 -46 66 425 65 hintmask 1001111011000000
          632 757 rmoveto
          hintmask 0101111011000000
          -36 callsubr
          hintmask 1001111011000000
          -12 callgsubr
          hintmask 0011111011000000
          -4 callsubr
          hintmask 1001111011000000
          -103 65 vlineto
          hintmask 0011111011000000
          103 50 vlineto
          hintmask 1001111011000000
          63 -50 75 -65 -75 vlineto
          -538 471 -72 callgsubr
          hintmask 1001111101000000
          -12 callsubr
        </CharString>
        <CharString name="threesuperior">
          -249 280 64 135 53 105 62 hstemhm
          77 242 -46 66 hintmask 11101000
          226 637 -72 callgsubr
          hintmask 11110000
          -12 callsubr
        </CharString>
        <CharString name="tilde">
          -126 739 -55 callsubr
          95 -19 callgsubr
          hintmask 10110000
          427 869 -75 callsubr
          hintmask 01110000
          -97 callsubr
          hintmask 10110000
          -85 callgsubr
        </CharString>
        <CharString name="trademark">
          355 636 63 hstem
          183 69 201 69 324 69 vstem
          252 636 rmoveto
          124 63 -317 -63 124 -346 69 hlineto
          412 35 rmoveto
          39 hlineto
          143 284 rlineto
          -319 69 409 -107 vlineto
          -124 -257 -123 257 rlineto
          -108 -409 69 319 hlineto
          endchar
        </CharString>
        <CharString name="two">
          -56 0 113 497 106 hstem
          401 113 vstem
          401 503 rmoveto
          -51 -46 -53 -85 -86 vhcurveto
          -212 -213 rlineto
          -100 478 113 -317 vlineto
          164 167 rlineto
          101 103 30 55 71 vvcurveto
          133 -107 74 -118 -115 -67 -53 -86 -57 vhcurveto
          95 -55 rlineto
          45 29 42 43 72 hhcurveto
          65 48 -42 -65 hvcurveto
          endchar
        </CharString>
        <CharString name="twosuperior">
          -226 298 66 290 62 hstem
          271 66 vstem
          271 592 rmoveto
          -30 -27 -31 -50 -50 vhcurveto
          -123 -10 callgsubr
          95 97 rlineto
          59 61 18 32 41 vvcurveto
          78 -63 43 -68 -68 -39 -31 -50 -33 vhcurveto
          55 -32 rlineto
          26 17 25 25 42 hhcurveto
          38 28 -24 -38 hvcurveto
          endchar
        </CharString>
        <CharString name="u">
          -43 callsubr
          -32 callgsubr
          hintmask 10111000
          -82 callsubr
          hintmask 01111000
          -45 callsubr
          vlineto
          endchar
        </CharString>
        <CharString name="uacute">
          -43 callsubr
          186 -20 69 -20 -32 callgsubr
          hintmask 10111110
          -82 callsubr
          hintmask 01111110
          -45 callsubr
          vlineto
          -103 70 -99 callgsubr
        </CharString>
        <CharString name="ucircumflex">
          -43 callsubr
          88 134 -32 callgsubr
          hintmask 10111100
          -82 callsubr
          hintmask 01111100
          -45 callsubr
          vlineto
          -183 202 -104 callgsubr
        </CharString>
        <CharString name="udieresis">
          -43 callsubr
          88 123 hstemhm
          75 112 -25 -48 callsubr
          -17 112 hintmask 10111001
          hintmask 10110110
          162 -100 callsubr
          hintmask 10111001
          106 -418 -93 callgsubr
          hintmask 01111001
          -45 callsubr
          vlineto
          endchar
        </CharString>
        <CharString name="ugrave">
          -43 callsubr
          233 -20 -32 callgsubr
          hintmask 10111100
          393 -71 callgsubr
          162 -356 -93 callgsubr
          hintmask 01111100
          -45 callsubr
          vlineto
          endchar
        </CharString>
        <CharString name="underscore">
          77 -138 57 hstem
          72 578 vstem
          72 -138 rmoveto
          578 57 -578 hlineto
          endchar
        </CharString>
        <CharString name="v">
          -73 -8 callgsubr
          8 556 hintmask 01110000
          222 hmoveto
          128 hlineto
          214 532 -6 callsubr
          hintmask 10110000
          -162 -402 -162 402 -6 callsubr
          endchar
        </CharString>
        <CharString name="w">
          267 -8 callgsubr
          18 876 hintmask 01110000
          330 hmoveto
          126 364 126 -364 rlineto
          128 hlineto
          184 532 -6 callsubr
          hintmask 10110000
          -17 callsubr
          -17 callsubr
          184 -532 rlineto
          endchar
        </CharString>
        <CharString name="x">
          -87 -38 callsubr
          hstem
          19 520 vstem
          166 532 rmoveto
          -137 hlineto
          179 -261 -189 -271 rlineto
          131 hlineto
          124 177 127 -177 rlineto
          138 hlineto
          -194 272 186 260 rlineto
          -133 hlineto
          -118 -175 rlineto
          endchar
        </CharString>
        <CharString name="y">
          -84 callsubr
          endchar
        </CharString>
        <CharString name="yacute">
          -84 callsubr
          23 728 -99 callgsubr
        </CharString>
        <CharString name="ydieresis">
          -21 callsubr
          88 123 hstem
          138 -48 callsubr
          vstem
          138 -100 callsubr
          244 -130 -91 callgsubr
          endchar
        </CharString>
        <CharString name="yen">
          70 0 212 -88 88 60 88 339 -20 hstemhm
          292 125 hintmask 01111000
          102 212 rmoveto
          -88 190 vlineto
          hintmask 10111000
          -124 125 vlineto
          hintmask 01111000
          124 189 88 -188 54 vlineto
          3 6 rlineto
          185 88 -131 hlineto
          208 339 rlineto
          -127 hlineto
          -196 -321 rlineto
          -7 hlineto
          -189 321 -15 callsubr
          201 -339 rlineto
          -134 -88 186 hlineto
          4 -6 rlineto
          -54 vlineto
          endchar
        </CharString>
        <CharString name="z">
          -104 0 97 337 96 -56 callgsubr
          endchar
        </CharString>
        <CharString name="zcaron">
          -104 0 97 337 96 70 134 -56 callgsubr
          261 166 -94 callgsubr
        </CharString>
        <CharString name="zero">
          43 -8 101 522 101 hstem
          59 114 340 116 vstem
          173 354 rmoveto
          145 47 116 124 124 45 -116 -145 -145 -45 -116 -124 -124 -47 116 145 vhcurveto
          -114 hmoveto
          -208 86 -154 199 199 86 154 208 208 -86 154 -199 -199 -86 -154 -208 vhcurveto
          endchar
        </CharString>
      <CharString index="0">
        rmoveto
        -35 27 -27 34 -99 callsubr
        -34 -27 -27 -34 vhcurveto
        -18 callsubr
        -35 28 -27 33 -99 callsubr
        -33 -28 -27 -34 vhcurveto
        return
      </CharString>
      <CharString index="1">
        -92 callsubr
        -100 vmoveto
        -62 callsubr
        152 -118 122 -162 -89 callsubr
        hvcurveto
        return
      </CharString>
      <CharString index="2">
        -49 callgsubr
        319 121 vstem
        655 472 rmoveto
        156 -81 71 -217 vhcurveto
        -260 -59 callgsubr
        235 124 hlineto
        31 hlineto
        167 -235 rlineto
        150 hlineto
        -183 254 rlineto
        97 29 54 65 124 vvcurveto
        -121 hmoveto
        -84 -31 -46 -141 vhcurveto
        -147 250 150 hlineto
        125 44 -26 -94 hvcurveto
        return
      </CharString>
      <CharString index="3">
        -105 callsubr
        endchar
      </CharString>
      <CharString index="4">
        -23 callgsubr
        257 102 hintmask 10111110
        hintmask 01111110
        -106 callsubr
        hintmask 10111110
        -77 callsubr
        hintmask 01111110
        -35 callgsubr
        hintmask 10111110
        -88 callgsubr
        return
      </CharString>
      <CharString index="5">
        -42 33 -33 41 41 34 34 41 41 -33 33 -42 -41 -33 -33 -41 vhcurveto
        return
      </CharString>
      <CharString index="6">
        rmoveto
        77 vlineto
        -104 callsubr
        return
      </CharString>
      <CharString index="7">
        140 107 -54 callsubr
        -139 -107 -54 callsubr
        -140 -107 114 139 -66 callgsubr
        hvcurveto
        return
      </CharString>
      <CharString index="8">
        rmoveto
        -98 callsubr
      </CharString>
      <CharString index="9">
        420 608 -107 callsubr
        return
      </CharString>
      <CharString index="10">
        -38 callgsubr
        576 217 -101 callgsubr
        return
      </CharString>
      <CharString index="11">
        122 96 -118 49 -106 -145 rlineto
        return
      </CharString>
      <CharString index="12">
        422 -11 callsubr
        -114 hlineto
        -308 -699 -83 callsubr
        -248 268 -50 callsubr
        return
      </CharString>
      <CharString index="13">
        rmoveto
        122 134 7 callgsubr
        -77 -56 -77 56 7 callgsubr
        122 6 callgsubr
        endchar
      </CharString>
      <CharString index="14">
        rmoveto
        -78 callgsubr
        -326 vlineto
        -144 86 -70 115 73 68 39 66 36 vhcurveto
        return
      </CharString>
      <CharString index="15">
        -102 callgsubr
        endchar
      </CharString>
      <CharString index="16">
        rmoveto
        -120 hlineto
        -159 -392 -159 392 rlineto
        -120 hlineto
        216 -535 -1 -4 -8 vvcurveto
        -41 -35 -45 -44 -28 -30 14 19 -20 vhcurveto
        -51 -91 -54 callgsubr
        69 61 42 70 31 hvcurveto
        return
      </CharString>
      <CharString index="17">
        hstem
        65 108 176 111 vstem
        460 164 rmoveto
        99 -87 33 -77 24 vhcurveto
        -62 20 -61 1 47 vvcurveto
        40 39 18 51 45 54 -15 -28 42 vhcurveto
        42 83 rlineto
        37 -56 -62 17 -66 hhcurveto
        -105 -92 -61 -102 -94 100 -38 66 -18 hvcurveto
        62 -19 56 -14 -43 vvcurveto
        -35 -30 -27 -52 -54 -69 27 43 -57 vhcurveto
        -54 -87 rlineto
        -52 66 90 -28 75 hhcurveto
        110 86 61 111 hvcurveto
        return
      </CharString>
      <CharString index="18">
        -69 callgsubr
        -74 callgsubr
        return
      </CharString>
      <CharString index="19">
        -79 callsubr
        17 65 vhcurveto
        -23 callsubr
        return
      </CharString>
      <CharString index="20">
        -491 -699 503 -85 callsubr
        return
      </CharString>
      <CharString index="21">
        -51 callsubr
        -98 callgsubr
        return
      </CharString>
      <CharString index="22">
        31 53 -47 48 hhcurveto
        -67 callgsubr
      </CharString>
      <CharString index="23">
        -64 70 rlineto
        -46 -38 -59 -17 -55 hhcurveto
        -80 -79 48 81 -6 hvcurveto
        return
      </CharString>
      <CharString index="24">
        rmoveto
        87 -63 72 -87 -88 -64 -73 -87 -87 63 -72 87 88 64 73 87 vhcurveto
        return
      </CharString>
      <CharString index="25">
        rmoveto
        -39 32 -32 39 39 32 32 39 39 -32 32 -39 -39 -32 -32 -39 vhcurveto
        return
      </CharString>
      <CharString index="26">
        -87 callsubr
        -68 -39 -66 -36 vhcurveto
        return
      </CharString>
      <CharString index="27">
        -40 -24 -31 -33 -31 -27 31 40 40 24 31 33 31 27 -31 -40 vhcurveto
        return
      </CharString>
      <CharString index="28">
        rmoveto
        -54 -28 -29 -37 -22 -28 10 23 -24 vhcurveto
        -52 -84 -54 callgsubr
        89 82 66 117 hvcurveto
        561 -112 vlineto
        return
      </CharString>
      <CharString index="29">
        -106 -74 -45 -70 -77 -45 45 102 vhcurveto
        292 -112 return
      </CharString>
      <CharString index="30">
        -58 -8 95 -66 -21 243 78 126 93 return
      </CharString>
      <CharString index="31">
        97 23 -21 157 109 432 -20 hstem
        196 159 rmoveto
        350 hlineto
        70 -159 rlineto
        126 -5 callsubr
        699 rlineto
        -126 -2 callgsubr
        372 268 rmoveto
        -254 hlineto
        127 288 rlineto
        return
      </CharString>
      <CharString index="32">
        36 -40 -47 17 -45 hhcurveto
        -89 -82 -66 -117 hvcurveto
        -41 -67 -90 67 -442 112 442 140 90 -140 vlineto
        return
      </CharString>
      <CharString index="33">
        -207 -161 -155 -206 return
      </CharString>
      <CharString index="34">
        hstem
        342 -14 callsubr
        120 593 rmoveto
        222 -361 hlineto
        -88 -55 -36 -56 -50 -43 27 38 -40 vhcurveto
        -67 -93 rlineto
        -60 60 73 -26 75 hhcurveto
        120 101 72 172 hvcurveto
        461 -340 vlineto
        return
      </CharString>
      <CharString index="35">
        rmoveto
        -96 -112 rlineto
        -53 vlineto
        5 16 15 2 14 hhcurveto
        64 34 -30 -37 -49 -39 -19 -44 -35 -40 13 22 -31 hvcurveto
        -30 -56 rlineto
        -29 43 49 -14 44 hhcurveto
        81 68 48 87 59 -40 56 -80 2 hvcurveto
        return
      </CharString>
      <CharString index="36">
        600 -91 callsubr
        return
      </CharString>
      <CharString index="37">
        -16 26 26 -6 23 hhcurveto
        79 39 48 47 45 -25 28 -45 6 hvcurveto
        return
      </CharString>
      <CharString index="38">
        206 -161 155 -207 return
      </CharString>
      <CharString index="39">
        -75 callsubr
        hintmask 11011111
        -97 callsubr
        hintmask 11101011
        -85 callgsubr
      </CharString>
      <CharString index="40">
        63 27 52 78 2 hvcurveto
        endchar
      </CharString>
      <CharString index="41">
        140 107 114 140 return
      </CharString>
      <CharString index="42">
        -83 callgsubr
        -92 -4 rmoveto
        return
      </CharString>
      <CharString index="43">
        rmoveto
        -108 hlineto
        -119 -176 119 -176 rlineto
        108 hlineto
        -115 176 rlineto
        return
      </CharString>
      <CharString index="44">
        -58 callsubr
        436 -5 callgsubr
        -46 callgsubr
        return
      </CharString>
      <CharString index="45">
        207 161 155 207 return
      </CharString>
      <CharString index="46">
        -207 161 -155 207 return
      </CharString>
      <CharString index="47">
        90 83 49 78 74 70 -44 -95 vhcurveto
        return
      </CharString>
      <CharString index="48">
        -699 118 return
      </CharString>
      <CharString index="49">
        757 -91 callsubr
        return
      </CharString>
      <CharString index="50">
        21 -21 699 -20 -40 callgsubr
        return
      </CharString>
      <CharString index="51">
        hstem
        44 452 vstem
        335 434 rmoveto
        -291 -325 rlineto
        -109 452 97 -315 vlineto
        299 332 rlineto
        101 -416 -96 vlineto
        return
      </CharString>
      <CharString index="52">
        rmoveto
        -46 callsubr
        532 vlineto
        return
      </CharString>
      <CharString index="53">
        rlineto
        -36 40 47 -17 45 hhcurveto
        return
      </CharString>
      <CharString index="54">
        460 rmoveto
        -471 218 rlineto
        -114 vlineto
        352 -159 rlineto
        -11 vlineto
        -352 -163 rlineto
        -114 vlineto
        471 217 rlineto
        return
      </CharString>
      <CharString index="55">
        213 hmoveto
        -47 callgsubr
      </CharString>
      <CharString index="56">
        -63 callsubr
        -31 callgsubr
        return
      </CharString>
      <CharString index="57">
        -27 -8 96 129 88 139 96 return
      </CharString>
      <CharString index="58">
        hstem
        -44 callgsubr
        return
      </CharString>
      <CharString index="59">
        rlineto
        4 10 9 1 8 hhcurveto
        28 15 -21 -20 return
      </CharString>
      <CharString index="60">
        -95 callsubr
        endchar
      </CharString>
      <CharString index="61">
        112 151 vlineto
        81 82 158 -233 rlineto
        136 hlineto
        return
      </CharString>
      <CharString index="62">
        rmoveto
        -95 callsubr
        return
      </CharString>
      <CharString index="63">
        97 118 return
      </CharString>
      <CharString index="64">
        123 -7 111 595 -20 return
      </CharString>
      <CharString index="65">
        97 -11 callsubr
        -59 callgsubr
        return
      </CharString>
      <CharString index="66">
        -74 callsubr
        hstem
        return
      </CharString>
      <CharString index="67">
        -31 callgsubr
        -42 callgsubr
        return
      </CharString>
      <CharString index="68">
        hstem
        88 118 356 -14 callsubr
        return
      </CharString>
      <CharString index="69">
        hstem
        47 112 305 -22 callgsubr
        return
      </CharString>
      <CharString index="70">
        -20 -31 callsubr
        return
      </CharString>
      <CharString index="71">
        rmoveto
        -129 hlineto
        -512 -4 callgsubr
        129 hlineto
        return
      </CharString>
      <CharString index="72">
        -71 vlineto
        -10 198 rmoveto
        return
      </CharString>
      <CharString index="73">
        -112 -532 return
      </CharString>
      <CharString index="74">
        81 532 -55 callgsubr
        return
      </CharString>
      <CharString index="75">
        hstemhm
        75 -20 callsubr
        return
      </CharString>
      <CharString index="76">
        -49 callgsubr
        vstem
        return
      </CharString>
      <CharString index="77">
        67 rmoveto
        -102 callgsubr
        return
      </CharString>
      <CharString index="78">
        rmoveto
        -80 callgsubr
        return
      </CharString>
      <CharString index="79">
        -70 callsubr
        -51 callsubr
        return
      </CharString>
      <CharString index="80">
        -11 -16 -7 -16 -20 vvcurveto
        -40 30 -23 33 return
      </CharString>
      <CharString index="81">
        -22 callsubr
        -57 51 -47 57 57 52 47 57 vhcurveto
        return
      </CharString>
      <CharString index="82">
        -212 69 -48 -21 149 return
      </CharString>
      <CharString index="83">
        0 callgsubr
        336 return
      </CharString>
      <CharString index="84">
        hstemhm
        41 112 return
      </CharString>
      <CharString index="85">
        112 vstem
        return
      </CharString>
      <CharString index="86">
        rmoveto
        -71 -2 -66 -48 -35 -65 rrcurveto
        return
      </CharString>
      <CharString index="87">
        114 52 88 121 -3 vhcurveto
        return
      </CharString>
      <CharString index="88">
        74 183 75 return
      </CharString>
      <CharString index="89">
        -91 callsubr
        endchar
      </CharString>
      <CharString index="90">
        -309 -146 93 315 93 402 -20 hstem
        return
      </CharString>
      <CharString index="91">
        -44 72 29 -17 54 hhcurveto
        83 62 65 123 hvcurveto
        return
      </CharString>
      <CharString index="92">
        532 -34 callgsubr
        vlineto
        return
      </CharString>
      <CharString index="93">
        532 -112 return
      </CharString>
      <CharString index="94">
        232 hlineto
        281 117 148 202 return
      </CharString>
      <CharString index="95">
        -52 -591 rmoveto
        148 243 rlineto
        -76 hlineto
        return
      </CharString>
      <CharString index="96">
        -173 -21 186 return
      </CharString>
      <CharString index="97">
        -125 rlineto
        -58 279 66 -185 vlineto
        return
      </CharString>
      <CharString index="98">
        rmoveto
        96 hlineto
        80 195 rlineto
        -111 hlineto
        return
      </CharString>
      <CharString index="99">
        0 130 -109 -57 callsubr
        hstemhm
        return
      </CharString>
      <CharString index="100">
        142 -128 112 return
      </CharString>
      <CharString index="101">
        -5 callsubr
        -4 callgsubr
        return
      </CharString>
      <CharString index="102">
        -112 -742 return
      </CharString>
      <CharString index="103">
        -699 rlineto
        return
      </CharString>
      <CharString index="104">
        -20 hstemhm
        47 112 320 112 return
      </CharString>
      <CharString index="105">
        -6 callgsubr
        -23 callsubr
        return
      </CharString>
      <CharString index="106">
        -158 -94 -81 -168 vhcurveto
        -131 return
      </CharString>
      <CharString index="107">
        46 112 return
      </CharString>
      <CharString index="108">
        70 182 hvcurveto
        -121 hmoveto
        -82 return
      </CharString>
      <CharString index="109">
        30 0 109 482 108 return
      </CharString>
      <CharString index="110">
        rmoveto
        -94 472 94 vlineto
        endchar
      </CharString>
      <CharString index="111">
        20 -9 19 -19 12 return
      </CharString>
      <CharString index="112">
        757 -20 hstem
        return
      </CharString>
      <CharString index="113">
        -134 rlineto
        return
      </CharString>
      <CharString index="114">
        rlineto
        -97 hlineto
        return
      </CharString>
      <CharString index="115">
        134 hstem
        return
      </CharString>
</ttFont>
